<?xml version="1.0" encoding="iso-8859-1"?>
<!-- Generator: Adobe Illustrator 19.0.0, SVG Export Plug-In . SVG Version: 6.00 Build 0)  -->
<svg version="1.1" id="Capa_1" xmlns="http://www.w3.org/2000/svg" xmlns:xlink="http://www.w3.org/1999/xlink" x="0px" y="0px"
	 viewBox="0 0 512 512" style="enable-background:new 0 0 512 512;" xml:space="preserve">
<path style="fill:#F0A68D;" d="M82.073,512c-13.533,0-24.503-10.971-24.503-24.503V291.639c0-13.533,10.971-24.503,24.503-24.503
	s24.503,10.971,24.503,24.503v195.858C106.576,501.029,95.606,512,82.073,512z"/>
<path style="fill:#FFB69E;" d="M123.474,512c-13.533,0-24.503-10.971-24.503-24.503V291.639c0-13.533,10.97-24.503,24.503-24.503
	s24.503,10.971,24.503,24.503v195.858C147.977,501.029,137.007,512,123.474,512z"/>
<path style="fill:#1B224A;" d="M151.183,121.89c-2.286-12.496-12.418-21.528-24.194-21.528c-15.165,0-25.831,0-42.663,0
	c-11.8,0-21.903,9.006-24.194,21.528L22.419,327.994c-0.609,3.33,0.193,6.779,2.184,9.403s4.965,4.156,8.103,4.156
	c31.872,0,114.052,0,145.902,0c3.14,0,6.115-1.522,8.107-4.148c1.992-2.626,2.79-6.079,2.18-9.411L151.183,121.89z"/>
<circle style="fill:#FFB69E;" cx="105.66" cy="42.32" r="42.32"/>
<path style="fill:#252D5C;" d="M139.802,197.515l-46.709-54.246c-6.911-8.026-6.007-20.135,2.019-27.046
	c8.026-6.912,20.136-6.006,27.046,2.019l39.206,45.532l63.548-14.23c10.337-2.313,20.589,4.187,22.905,14.523
	c2.314,10.336-4.189,20.591-14.524,22.905l-74.768,16.742C151.652,205.256,144.441,202.902,139.802,197.515z"/>
<path style="fill:#FFFFFF;" d="M247.818,164.068c-2.316-10.336-12.568-16.837-22.905-14.523l-9.856,2.207l8.888,37.314l9.35-2.094
	C243.629,184.659,250.132,174.404,247.818,164.068z"/>
<path style="fill:#FFB69E;" d="M247.818,164.068c-2.316-10.336-12.568-16.837-22.905-14.523l8.381,37.428
	C243.629,184.659,250.132,174.404,247.818,164.068z"/>
<path style="fill:#C8E6EB;" d="M320.112,212.126c1.32,5.624-2.17,11.253-7.794,12.573l-41.581,9.757
	c-5.624,1.32-11.253-2.17-12.573-7.794L244.5,168.428c-1.32-5.624,2.17-11.253,7.794-12.573l41.581-9.757
	c5.624-1.32,11.253,2.17,12.573,7.794L320.112,212.126z"/>
<g>
	<path style="fill:#FFB69E;" d="M368.59,512c-8.89,0-16.097-7.207-16.097-16.097V367.24c0-8.89,7.207-16.097,16.097-16.097
		s16.097,7.207,16.097,16.097v128.663C384.686,504.793,377.479,512,368.59,512z"/>
	<path style="fill:#FFB69E;" d="M407.733,512c-8.889,0-16.097-7.207-16.097-16.097V367.24c0-8.89,7.207-16.097,16.097-16.097
		c8.89,0,16.097,7.207,16.097,16.097v128.663C423.83,504.793,416.622,512,407.733,512z"/>
	<path style="fill:#FFB69E;" d="M486.666,296.072c-4.745-5.688-13.204-6.453-18.892-1.707l-15.749,13.139
		c-1.943-5.329-3.636-10.09-5.063-14.242c-6.223-18.11-16.658-27.292-31.015-27.292c-19.314,0-28.348,0-47.652,0l-32.381-17.372
		l-18-34.029c-3.463-6.549-11.582-9.05-18.129-5.585c-6.549,3.464-9.05,11.581-5.586,18.13l19.911,37.644
		c1.246,2.357,3.167,4.288,5.515,5.548l38.136,20.459L334.94,396.87c-0.931,3.843,2.856,7.098,7.316,7.098
		c20.727,0,71.098,0,91.809,0c4.588,0,8.226-3.342,7.316-7.098l-21.18-98.475c1.928,4.443,2.102,6.663,13.317,36.3
		c3.256,8.606,14.052,11.466,21.139,5.553l30.302-25.281C490.648,310.219,491.412,301.76,486.666,296.072z"/>
</g>
<path style="fill:#252D5C;" d="M467.773,294.365l-15.749,13.139c-1.943-5.329-3.636-10.09-5.063-14.242
	c-6.223-18.11-16.658-27.292-31.015-27.292h-14.425c-0.027,7.018-4.56,14.019-13.592,14.019c-9.047,0-13.572-7-13.592-14.019h-6.044
	l-32.381-17.372l-18-34.029l-23.714,12.544l19.911,37.644c1.246,2.357,3.167,4.288,5.515,5.548l38.136,20.459l-22.821,106.105
	c-0.931,3.843,2.856,7.098,7.316,7.098h91.809c4.587,0,8.226-3.342,7.316-7.098l-21.18-98.475c1.928,4.443,2.102,6.663,13.317,36.3
	c3.256,8.606,14.052,11.466,21.139,5.553l30.302-25.281L467.773,294.365z"/>
<circle style="fill:#FFB69E;" cx="388.16" cy="223.72" r="32.512"/>
<path style="fill:#823214;" d="M408.055,266.129c-5.653,15.646-25.49,59.285-75.534,77.066l4.567,12.852
	c35.686-12.679,57.162-37.031,68.894-55.227c9.842-15.264,14.621-28.708,16.353-34.304c0.415-1.339-0.59-2.69-1.993-2.69h-9.016
	C409.858,263.826,408.554,264.748,408.055,266.129z"/>
<path style="fill:#965028;" d="M340.816,398.923c-0.385,2.04-2.35,3.381-4.39,2.996l-21.654-4.086
	c-2.04-0.385-3.381-2.35-2.996-4.39l10.199-54.045c0.385-2.04,2.35-3.381,4.39-2.996l21.654,4.086c2.04,0.385,3.381,2.35,2.996,4.39
	L340.816,398.923z"/>
<path style="fill:#A56941;" d="M317.136,348.527l-0.872,4.745c-0.383,2.086,0.997,4.087,3.082,4.47l10.919,2.006l2.259-12.298
	l-10.92-2.006C319.52,345.062,317.519,346.442,317.136,348.527z"/>
<g>
</g>
<g>
</g>
<g>
</g>
<g>
</g>
<g>
</g>
<g>
</g>
<g>
</g>
<g>
</g>
<g>
</g>
<g>
</g>
<g>
</g>
<g>
</g>
<g>
</g>
<g>
</g>
<g>
</g>
</svg>
