<?xml version="1.0" encoding="iso-8859-1"?>
<!-- Generator: Adobe Illustrator 19.0.0, SVG Export Plug-In . SVG Version: 6.00 Build 0)  -->
<svg version="1.1" id="Capa_1" xmlns="http://www.w3.org/2000/svg" xmlns:xlink="http://www.w3.org/1999/xlink" x="0px" y="0px"
	 viewBox="0 0 512 512" style="enable-background:new 0 0 512 512;" xml:space="preserve">
<path style="fill:#FFB69E;" d="M202.09,329.091V487.6c0,13.476-10.924,24.4-24.4,24.4c-13.476,0-24.4-10.924-24.4-24.4V329.091
	H202.09z"/>
<path style="fill:#F2A085;" d="M142.754,329.091V487.6c0,13.476-10.924,24.4-24.4,24.4s-24.4-10.924-24.4-24.4V329.091H142.754z"/>
<path style="fill:#1B224A;" d="M250.155,194.64c-8.806-24.469-13.042-36.461-18.885-53.461
	c-9.287-27.03-24.742-40.986-45.941-41.524l-0.004-0.023c-0.49,0-71.057-0.005-72.527-0.001c-21.763,0-37.58,13.919-47.014,41.37
	C51.162,183.548,17.962,274.38,17.628,275.293c-3.856,10.547,1.567,22.222,12.115,26.078c10.531,3.851,22.216-1.551,26.078-12.114
	c0.283-0.775,40.409-112.103,40.409-112.103l-28.88,151.414c-1.356,7,4.012,13.457,11.09,13.457h139.165
	c7.054,0,12.443-6.463,11.09-13.457l-17.129-90.42l30.363-19.382C249.97,213.634,253.385,203.616,250.155,194.64z M199.39,173.882
	L206.174,193l-2.821,1.801L199.39,173.882z"/>
<path style="fill:#252D5C;" d="M17.628,275.293c0.334-0.912,33.534-91.744,48.155-134.291c9.433-27.452,25.252-41.371,47.014-41.371
	h35.211v242.395c-26.938,0-53.873,0-69.569,0c-7.077,0-12.445-6.457-11.09-13.457l28.88-151.414c0,0-40.126,111.328-40.409,112.103
	c-3.862,10.563-15.549,15.965-26.078,12.114C19.196,297.516,13.772,285.84,17.628,275.293z"/>
<polygon style="fill:#FFFFFF;" points="179.337,99.631 148.026,181.803 116.707,99.631 "/>
<path style="fill:#FF3C3C;" d="M134.407,127.604l6.957-12.652l-5.995-10.904c-1.09-1.984,0.346-4.418,2.613-4.418h20.097
	c2.263,0,3.704,2.431,2.613,4.418l-6.015,10.94l6.937,12.617c0.96,1.747,1.273,3.777,0.882,5.731l-4.28,21.721l-10.189,26.745
	l-10.199-26.75l-4.303-21.715C133.134,131.382,133.446,129.352,134.407,127.604z"/>
<g>
	<circle style="fill:#FFB69E;" cx="148.022" cy="42.141" r="42.141"/>
	<path style="fill:#FFB69E;" d="M55.822,289.258c-3.862,10.562-15.548,15.966-26.078,12.114
		c-10.547-3.856-15.971-15.532-12.115-26.078C17.669,275.182,55.913,289.008,55.822,289.258z"/>
</g>
<polygon style="fill:#FFFFFF;" points="59.373,279.524 21.14,265.545 17.63,275.293 55.824,289.258 "/>
<path style="fill:#C8E6EB;" d="M172.781,263.206l-54.868,13.374c-6.81,1.66-13.677-2.516-15.337-9.326l-18.385-75.426
	c-1.66-6.81,2.516-13.677,9.326-15.337l54.868-13.374c6.81-1.66,13.677,2.516,15.337,9.326l18.385,75.426
	C183.767,254.68,179.591,261.546,172.781,263.206z"/>
<path style="fill:#1B224A;" d="M161.627,266.251c-6.763,0-13.382-3.344-17.291-9.468c-6.089-9.538-3.292-22.207,6.247-28.296
	l69.262-44.212c9.538-6.089,22.208-3.292,28.296,6.247c6.089,9.538,3.292,22.207-6.247,28.296l-69.262,44.212
	C169.218,265.208,165.399,266.251,161.627,266.251z"/>
<path style="fill:#FFFFFF;" d="M159.331,222.903l-8.748,5.584c-9.539,6.089-12.336,18.758-6.247,28.296
	c6.076,9.518,18.737,12.349,28.296,6.247l8.666-5.532L159.331,222.903z"/>
<path style="fill:#FFB69E;" d="M150.584,228.486c-9.539,6.089-12.336,18.758-6.247,28.296c6.076,9.518,18.737,12.349,28.296,6.247
	L150.584,228.486z"/>
<g>
	<path style="fill:#414B82;" d="M418.52,512c-13.431,0-24.317-10.888-24.317-24.318V293.306c0-13.431,10.888-24.317,24.317-24.317
		c13.431,0,24.318,10.888,24.318,24.317v194.376C442.838,501.112,431.95,512,418.52,512z"/>
	<path style="fill:#414B82;" d="M359.816,512c-13.431,0-24.318-10.888-24.318-24.318V293.306c0-13.431,10.888-24.317,24.318-24.317
		c13.431,0,24.318,10.888,24.318,24.317v194.376C384.134,501.112,373.247,512,359.816,512z"/>
</g>
<path style="fill:#252D5C;" d="M492.265,146.381c-0.131-26.311-21.981-47.716-48.704-47.716h-54.309h-0.134h-54.349
	c-26.724,0-48.572,21.406-48.704,47.716c0,0.034,0,0.068,0,0.101v148.879c0,11.192,9.073,20.265,20.265,20.265
	c11.192,0,20.265-9.073,20.265-20.265V146.55c0.042-3.853,3.928-7.355,8.175-7.355h0.729v154.112h53.67l0,0h53.67l0,0V139.195h0.724
	c4.246,0,8.132,3.501,8.175,7.355v148.812c0,11.192,9.073,20.265,20.265,20.265c11.192,0,20.265-9.073,20.265-20.265V146.483
	C492.266,146.449,492.266,146.414,492.265,146.381z"/>
<path style="fill:#1B224A;" d="M492.265,146.381c-0.131-26.311-21.981-47.716-48.704-47.716h-54.444l0.05,194.641h53.67V139.195
	h0.724c4.246,0,8.132,3.501,8.175,7.355v148.812c0,11.192,9.073,20.265,20.265,20.265c11.192,0,20.265-9.073,20.265-20.265V146.483
	C492.266,146.449,492.266,146.414,492.265,146.381z"/>
<circle style="fill:#BA6746;" cx="389.16" cy="43.735" r="41.999"/>
<g>
	<path style="fill:#80391B;" d="M488.136,427.617H455.82c-4.13,0-7.477-3.347-7.477-7.477v-82.388c0-4.13,3.347-7.477,7.477-7.477
		h32.317c4.13,0,7.477,3.347,7.477,7.477v82.388C495.615,424.27,492.266,427.617,488.136,427.617z"/>
	<rect x="460.12" y="285.067" style="fill:#80391B;" width="23.609" height="50.757"/>
</g>
<g>
	<path style="fill:#FFFFFF;" d="M286.058,285.367v10.452c0,11.192,9.073,20.265,20.265,20.265c11.192,0,20.265-9.073,20.265-20.265
		v-10.452H286.058z"/>
	<path style="fill:#FFFFFF;" d="M451.73,285.367v10.452c0,11.192,9.073,20.265,20.265,20.265s20.265-9.073,20.265-20.265v-10.452
		H451.73z"/>
</g>
<g>
	<path style="fill:#BA6746;" d="M286.058,295.297v0.522c0,11.192,9.073,20.265,20.265,20.265c11.192,0,20.265-9.073,20.265-20.265
		v-0.522H286.058z"/>
	<path style="fill:#BA6746;" d="M451.73,295.297v0.522c0,11.192,9.073,20.265,20.265,20.265s20.265-9.073,20.265-20.265v-0.522
		H451.73z"/>
</g>
<polygon style="fill:#FFFFFF;" points="358.241,98.665 389.166,179.811 420.09,98.665 "/>
<path style="fill:#FF3C3C;" d="M402.611,126.411l-6.902-12.555l5.954-10.829c0.502-0.912,0.484-2.021-0.046-2.917
	c-0.53-0.896-1.493-1.446-2.534-1.446h-19.847c-1.04,0-2.004,0.55-2.534,1.446c-0.53,0.896-0.547,2.005-0.046,2.917l5.973,10.865
	l-6.883,12.519c-0.948,1.725-1.257,3.73-0.871,5.66l4.301,21.525l9.99,26.214l10.026-26.307l4.291-21.431
	C403.869,130.142,403.56,128.136,402.611,126.411z"/>
<g>
</g>
<g>
</g>
<g>
</g>
<g>
</g>
<g>
</g>
<g>
</g>
<g>
</g>
<g>
</g>
<g>
</g>
<g>
</g>
<g>
</g>
<g>
</g>
<g>
</g>
<g>
</g>
<g>
</g>
</svg>
