<?xml version="1.0" encoding="iso-8859-1"?>
<!-- Generator: Adobe Illustrator 19.0.0, SVG Export Plug-In . SVG Version: 6.00 Build 0)  -->
<svg version="1.1" id="Capa_1" xmlns="http://www.w3.org/2000/svg" xmlns:xlink="http://www.w3.org/1999/xlink" x="0px" y="0px"
	 viewBox="0 0 512.001 512.001" style="enable-background:new 0 0 512.001 512.001;" xml:space="preserve">
<g>
	<path style="fill:#FFB69E;" d="M373.017,196.923l-30.275-64.041c-8.964-18.961-28.308-31.214-49.281-31.214h-53.699
		c-0.062,0-0.123,0.009-0.186,0.009c-22.872,0-44.833,0-54.161,0c-26.557,0-48.269,21.271-48.401,47.418v35.438l-0.001,112.614
		c0,11.122,9.017,20.138,20.139,20.138s20.139-9.017,20.139-20.138V184.533v-35.337c0.019-3.742,3.891-7.242,8.124-7.242h0.609
		V294.67h106.67v-87.024l55.639,17.564c7.813,2.465,16.277,0.032,21.597-6.066C375.286,213.008,376.497,204.285,373.017,196.923z
		 M292.695,164.689v-22.056h0.767c5.212,0,10.019,3.045,12.246,7.756l10.228,21.635L292.695,164.689z"/>
	<circle style="fill:#FFB69E;" cx="239.302" cy="41.738" r="41.738"/>
</g>
<g>
	<path style="fill:#414B82;" d="M234.358,286.893v200.941c0,13.346-10.82,24.167-24.166,24.167
		c-13.347,0-24.167-10.82-24.167-24.167V286.893H234.358z"/>
	<path style="fill:#414B82;" d="M292.695,286.893v200.941c0,13.346-10.82,24.167-24.166,24.167
		c-13.347,0-24.167-10.82-24.167-24.167V286.893H292.695z"/>
</g>
<path style="fill:#78BEFF;" d="M342.742,132.882c-8.964-18.961-28.308-31.214-49.281-31.214h-32.795
	c0.385,11.358-10.168,20.993-21.188,20.993c-11.806,0-20.559-9.595-21.167-20.984h-32.896c-26.557,0-48.269,21.271-48.401,47.418
	v35.438h40.278v-35.337c0.019-3.742,3.891-7.242,8.124-7.242h0.609V294.67h106.67V142.633h0.767c5.212,0,10.019,3.045,12.246,7.756
	l10.228,21.635l39.779-11.703L342.742,132.882z"/>
<path style="fill:#965028;" d="M161.145,312.286c-5.482,0.904-10.658-2.807-11.562-8.288l-12.194-73.93
	c-0.904-5.482,2.807-10.658,8.288-11.562l99.88-16.475c5.482-0.904,10.658,2.807,11.562,8.288l12.194,73.93
	c0.904,5.482-2.807,10.658-8.288,11.562L161.145,312.286z"/>
<g>
	<path style="fill:#823214;" d="M257.117,210.318c-0.904-5.482-6.081-9.192-11.562-8.288l-99.88,16.475
		c-5.482,0.904-9.192,6.081-8.288,11.562l2.157,13.078c1.002,6.079,4.383,11.508,9.396,15.089c5.012,3.581,11.244,5.021,17.32,4
		l73.947-12.427c12.599-2.117,21.111-14.029,19.031-26.634L257.117,210.318z"/>
	<path style="fill:#823214;" d="M230.941,230.416c-1.796,0-3.619-0.387-5.351-1.205c-6.263-2.96-8.94-10.435-5.981-16.699
		L276.835,90.96c2.958-6.263,10.433-8.942,16.7-5.981c6.262,2.96,8.94,10.435,5.981,16.699L242.29,223.23
		C240.148,227.761,235.641,230.416,230.941,230.416z"/>
</g>
<g>
	<path style="fill:#FFB69E;" d="M137.015,184.533L137.015,184.533l-0.001,112.614c0,11.122,9.017,20.138,20.139,20.138
		s20.139-9.017,20.139-20.138V184.533H137.015z"/>
	<path style="fill:#FFB69E;" d="M354.505,226.165c-2.043,0-4.119-0.308-6.171-0.956l-78.779-24.867
		c-10.788-3.406-16.772-14.911-13.366-25.698c3.406-10.788,14.912-16.771,25.697-13.366l78.779,24.867
		c10.788,3.406,16.772,14.911,13.366,25.698C371.274,220.579,363.204,226.165,354.505,226.165z"/>
</g>
<g>
</g>
<g>
</g>
<g>
</g>
<g>
</g>
<g>
</g>
<g>
</g>
<g>
</g>
<g>
</g>
<g>
</g>
<g>
</g>
<g>
</g>
<g>
</g>
<g>
</g>
<g>
</g>
<g>
</g>
</svg>
