<?xml version="1.0" encoding="iso-8859-1"?>
<!-- Generator: Adobe Illustrator 19.0.0, SVG Export Plug-In . SVG Version: 6.00 Build 0)  -->
<svg version="1.1" id="Capa_1" xmlns="http://www.w3.org/2000/svg" xmlns:xlink="http://www.w3.org/1999/xlink" x="0px" y="0px"
	 viewBox="0 0 512 512" style="enable-background:new 0 0 512 512;" xml:space="preserve">
<path style="fill:#5F6E9B;" d="M103.046,357.543v136.985c0,9.65,7.823,17.473,17.473,17.473s17.473-7.823,17.473-17.473V357.543
	H103.046z"/>
<path style="fill:#414B82;" d="M145.414,357.522v136.985c0,9.65,7.823,17.473,17.473,17.473s17.473-7.823,17.473-17.473V357.522
	H145.414z"/>
<path style="fill:#FFB69E;" d="M180.179,215.31v-0.016c-0.167,0-0.388,0-0.659,0c-12.513,0-67.396,0-75.629,0
	c-0.271,0-0.492,0-0.659,0v0.016c-21.335,0.33-35.564,16.526-35.653,34.271v118.293c-0.04,8.042,6.447,14.594,14.488,14.635h0.075
	c8.007,0,14.519-6.471,14.559-14.488c0-11.67,0-105.047,0-118.293c0.008-1.571,0.932-3.31,2.732-4.402
	c1.883-1.142,3.617-0.91,3.617-0.91l-0.001,121.742h0.181h76.947h0.181l-0.001-121.742c0,0,1.734-0.232,3.617,0.91
	c1.801,1.092,2.725,2.831,2.732,4.402c0,13.247,0,106.623,0,118.293c0.04,8.017,6.552,14.488,14.559,14.488h0.075
	c8.042-0.04,14.528-6.592,14.488-14.635V249.581C215.743,231.835,201.515,215.639,180.179,215.31z"/>
<path style="fill:#1E2D64;" d="M180.179,215.31v-0.016c-7.605,0-69.227,0-76.947,0v0.016c-21.335,0.33-35.564,16.526-35.653,34.271
	v118.44h29.121V249.728c0.008-1.571,0.932-3.31,2.732-4.402c1.883-1.142,3.617-0.911,3.617-0.911l-0.001,121.742h0.181h76.947h0.181
	l-0.001-121.742c0,0,1.734-0.232,3.617,0.911c1.801,1.092,2.725,2.83,2.732,4.402v118.293h29.121v-118.44
	C215.743,231.835,201.515,215.639,180.179,215.31z"/>
<g>
	<rect x="104.011" y="215.274" style="fill:#C8462D;" width="15.527" height="26.694"/>
	<polygon style="fill:#C8462D;" points="179.407,215.279 163.881,215.294 163.881,241.973 179.407,241.973 	"/>
</g>
<circle style="fill:#F5A68C;" cx="141.465" cy="166.279" r="38.712"/>
<path style="fill:#C8462D;" d="M227.841,301.824c0-13.065-10.591-23.657-23.657-23.657h-9.995v-25.952
	c0-5.657-4.586-10.243-10.242-10.243h-84.5c-5.657,0-10.242,4.586-10.242,10.243v25.952H78.233
	c-13.064,0-23.657,10.591-23.657,23.657c0,13.064,10.591,23.656,23.656,23.656h10.972c0,5.657,4.586,10.243,10.243,10.243h84.499
	c5.657,0,10.243-4.586,10.243-10.243h9.996C217.25,325.48,227.841,314.89,227.841,301.824z"/>
<g>
	<path style="fill:#AA321E;" d="M89.063,278.169h-10.83c-13.064,0-23.657,10.591-23.657,23.657
		c0,13.064,10.591,23.656,23.656,23.656h10.831V278.169z"/>
	<path style="fill:#AA321E;" d="M179.407,273.382v-33.671c0-2.814-2.282-5.097-5.097-5.097h-65.199
		c-2.814,0-5.097,2.282-5.097,5.097v33.671c0,2.814,2.282,5.097,5.097,5.097h65.199
		C177.125,278.478,179.407,276.196,179.407,273.382z"/>
	<path style="fill:#AA321E;" d="M204.184,278.169h-9.826v47.312h9.826c13.064,0,23.656-10.591,23.656-23.656
		C227.841,288.76,217.25,278.169,204.184,278.169z"/>
</g>
<g>
	<path style="fill:#872D1E;" d="M89.063,298.814v-20.645h-10.83c-12.044,0-21.978,9.003-23.459,20.645H89.063z"/>
	<path style="fill:#872D1E;" d="M227.643,298.814c-1.48-11.642-11.414-20.645-23.459-20.645h-9.826v20.645H227.643z"/>
</g>
<path style="fill:#AA321E;" d="M164.352,307.387h-45.29c-3.974,0-7.196-3.221-7.196-7.196s3.221-7.196,7.196-7.196h45.29
	c3.974,0,7.196,3.221,7.196,7.196S168.325,307.387,164.352,307.387z"/>
<circle style="fill:#FFB69E;" cx="355.129" cy="41.738" r="41.738"/>
<g>
	<path style="fill:#414B82;" d="M360.078,286.893v200.941c0,13.347,10.819,24.167,24.167,24.167
		c13.348,0,24.167-10.82,24.167-24.167V286.893H360.078z"/>
	<path style="fill:#414B82;" d="M301.74,286.893v200.941c0,13.347,10.819,24.167,24.167,24.167c13.348,0,24.167-10.82,24.167-24.167
		V286.893H301.74z"/>
</g>
<path style="fill:#FFB69E;" d="M457.421,184.664v-35.569c-0.132-26.146-21.844-47.417-48.4-47.417c-17.262,0-77.783,0-107.279,0l0,0
	h-0.002c-17.153,0-33.085,7.724-43.709,21.19l-40.407,51.218l-78.229,25.419c-10.69,3.47-16.543,14.95-13.071,25.64
	c3.471,10.691,14.952,16.543,25.64,13.071l84.099-27.325c3.827-1.243,7.201-3.592,9.693-6.751l44.23-56.063
	c2.857-3.622,7.142-5.699,11.755-5.699h0.002v152.291h106.67V141.954h0.609c4.232,0,8.105,3.499,8.124,7.242v35.468v112.483
	c0,11.122,9.017,20.138,20.139,20.138c11.122,0,20.139-9.016,20.139-20.138L457.421,184.664z"/>
<path style="fill:#78BEFF;" d="M457.421,184.664v-35.569c-0.132-26.146-21.844-47.417-48.4-47.417H301.74l0,0h-0.002
	c-17.153,0-33.085,7.724-43.709,21.19l-26.334,33.38l32.103,25.021l26.185-33.191c2.857-3.622,7.142-5.699,11.755-5.699h0.002
	V294.67h106.67V141.954h0.609c4.232,0,8.105,3.499,8.124,7.242v35.468H457.421z"/>
<g>
</g>
<g>
</g>
<g>
</g>
<g>
</g>
<g>
</g>
<g>
</g>
<g>
</g>
<g>
</g>
<g>
</g>
<g>
</g>
<g>
</g>
<g>
</g>
<g>
</g>
<g>
</g>
<g>
</g>
</svg>
