<?xml version="1.0" encoding="iso-8859-1"?>
<!-- Generator: Adobe Illustrator 19.0.0, SVG Export Plug-In . SVG Version: 6.00 Build 0)  -->
<svg version="1.1" id="Capa_1" xmlns="http://www.w3.org/2000/svg" xmlns:xlink="http://www.w3.org/1999/xlink" x="0px" y="0px"
	 viewBox="0 0 512 512" style="enable-background:new 0 0 512 512;" xml:space="preserve">
<path style="fill:#414B82;" d="M226.501,512c-13.476,0-24.401-10.925-24.401-24.401V292.562c0-13.476,10.925-24.401,24.401-24.401
	s24.401,10.924,24.401,24.401v195.037C250.902,501.075,239.978,512,226.501,512z"/>
<path style="fill:#252D5C;" d="M310.738,97.259h-54.699h-0.275h-54.394c-26.814,0-48.737,21.478-48.87,47.878
	c0,0.034,0,0.068,0,0.102v149.386c0,11.23,9.104,20.334,20.334,20.334c11.23,0,20.334-9.104,20.334-20.334V145.307
	c0.043-3.867,3.941-7.38,8.202-7.38h0.731v154.635h53.853h53.853v-62.598l21.169,9.107c2.591,1.115,5.34,1.665,8.078,1.665
	c3.94,0,7.858-1.138,11.246-3.369c5.745-3.783,9.203-10.2,9.203-17.078v-74.78c0-0.034,0-0.068,0-0.103
	C359.369,118.857,337.492,97.259,310.738,97.259z M318.607,189.232l-8.802-3.786v-47.292h0.932c4.234,0,7.83,3.397,7.87,7.423
	L318.607,189.232L318.607,189.232z"/>
<path style="fill:#414B82;" d="M285.405,512c-13.476,0-24.401-10.925-24.401-24.401V292.562c0-13.476,10.925-24.401,24.401-24.401
	s24.401,10.924,24.401,24.401v195.037C309.806,501.075,298.882,512,285.405,512z"/>
<path style="fill:#1B224A;" d="M310.738,97.259h-54.964v40.895h0.18v29.56c-5.462,1.732-10.173,5.72-12.615,11.397
	c-4.462,10.374,0.329,22.401,10.703,26.863l1.911,0.823v85.766h53.853v-62.598l21.169,9.107c13.47,5.795,28.528-4.094,28.528-18.784
	v-74.883C359.369,118.857,337.492,97.259,310.738,97.259z M318.607,189.232l-8.802-3.787v-47.292h0.932
	c4.234,0,7.83,3.397,7.87,7.423L318.607,189.232L318.607,189.232z"/>
<circle style="fill:#BA6746;" cx="255.948" cy="42.143" r="42.143"/>
<path style="fill:#FFFFFF;" d="M152.493,284.595v10.489c0,11.23,9.104,20.334,20.334,20.334c11.23,0,20.334-9.104,20.334-20.334
	v-10.489H152.493z"/>
<path style="fill:#BA6746;" d="M152.493,294.561v0.523c0,11.23,9.104,20.334,20.334,20.334c11.23,0,20.334-9.104,20.334-20.334
	v-0.523H152.493z"/>
<polygon style="fill:#FFFFFF;" points="224.921,97.259 255.951,178.681 286.98,97.259 "/>
<path style="fill:#FF3C3C;" d="M269.442,125.098l-6.926-12.598l5.974-10.866c0.503-0.915,0.486-2.028-0.046-2.927
	c-0.532-0.899-1.498-1.451-2.543-1.451h-19.915c-1.045,0-2.011,0.552-2.543,1.451c-0.532,0.899-0.549,2.012-0.046,2.927
	l5.994,10.902l-6.907,12.563c-0.951,1.731-1.261,3.742-0.874,5.679l4.316,21.598l10.024,26.303l10.06-26.398l4.306-21.503
	C270.704,128.843,270.394,126.83,269.442,125.098z"/>
<path style="fill:#823214;" d="M345.88,108.891c-4.447-4.397-11.617-4.359-16.017,0.09L193.149,247.248v32.216L345.97,124.909
	C350.368,120.46,350.328,113.289,345.88,108.891z"/>
<path style="fill:#1B224A;" d="M339.045,240.74c-2.697,0-5.436-0.537-8.07-1.67l-76.933-33.096
	c-10.374-4.462-15.165-16.49-10.703-26.863c4.462-10.374,16.491-15.165,26.863-10.702l76.933,33.096
	c10.374,4.462,15.165,16.49,10.703,26.863C354.508,236.108,346.968,240.74,339.045,240.74z"/>
<path style="fill:#FFFFFF;" d="M278.776,172.098l-8.575-3.689c-10.373-4.463-22.401,0.328-26.863,10.702
	c-4.462,10.374,0.329,22.401,10.703,26.863l8.828,3.798L278.776,172.098z"/>
<path style="fill:#BA6746;" d="M270.202,168.409c-10.373-4.463-22.401,0.328-26.863,10.702
	c-4.462,10.374,0.329,22.401,10.703,26.863L270.202,168.409z"/>
<g>
</g>
<g>
</g>
<g>
</g>
<g>
</g>
<g>
</g>
<g>
</g>
<g>
</g>
<g>
</g>
<g>
</g>
<g>
</g>
<g>
</g>
<g>
</g>
<g>
</g>
<g>
</g>
<g>
</g>
</svg>
