<?xml version="1.0" encoding="iso-8859-1"?>
<!-- Generator: Adobe Illustrator 19.0.0, SVG Export Plug-In . SVG Version: 6.00 Build 0)  -->
<svg version="1.1" id="Capa_1" xmlns="http://www.w3.org/2000/svg" xmlns:xlink="http://www.w3.org/1999/xlink" x="0px" y="0px"
	 viewBox="0 0 512 512" style="enable-background:new 0 0 512 512;" xml:space="preserve">
<path style="fill:#5F6E9B;" d="M215.962,209.192v154.436c0,10.049,8.147,18.195,18.196,18.195s18.196-8.147,18.196-18.195V209.192
	H215.962z"/>
<path style="fill:#414B82;" d="M259.886,209.192v154.436c0,10.049,8.147,18.195,18.196,18.195c10.049,0,18.196-8.147,18.196-18.195
	V209.192H259.886z"/>
<g>
	<circle style="fill:#FFB69E;" cx="255.957" cy="31.424" r="31.424"/>
	<path style="fill:#FFB69E;" d="M333.217,108.573c-0.093-18.67-15.212-35.704-37.813-35.704c-14.098,0-79.839,0-79.839,0l0,0
		c-20.961,0-36.741,16.714-36.835,35.704v20.753l0,0v90.646c-0.042,8.375,6.713,15.197,15.087,15.239h0.078
		c8.339,0,15.12-6.738,15.161-15.087c0-11.917,0-97.574,0-111.399c0.015-3.049,3.068-5.53,6.117-5.53h0.789v114.987h80.318
		l-0.001-114.99c0,0,1.806-0.242,3.767,0.948c1.875,1.137,2.837,2.948,2.845,4.584c0,13.795,0,99.245,0,111.4
		c0.042,8.348,6.823,15.086,15.161,15.086h0.078c8.375-0.042,15.129-6.865,15.087-15.239L333.217,108.573z"/>
</g>
<path style="fill:#64AFFF;" d="M295.404,72.869H272.45c0,0.003,0.001,0.006,0.001,0.008c0.406,9.062-8.002,16.78-16.78,16.78
	c-9.407,0-16.372-7.688-16.78-16.78c0-0.003,0-0.006,0-0.008c-13.177,0-23.326,0-23.326,0c-20.961,0-36.741,16.714-36.835,35.704
	v20.753l0,0v9.001h30.326v-29.601c0.015-3.049,3.068-5.53,6.117-5.53h0.789v114.987h80.318l-0.001-114.99
	c0,0,1.806-0.242,3.767,0.948c1.875,1.137,2.837,2.948,2.845,4.584v29.601h30.326v-29.753
	C333.124,89.903,318.006,72.869,295.404,72.869z"/>
<path style="fill:#5F6E9B;" d="M384.545,296.562v153.89c0,10.013,8.118,18.131,18.132,18.131s18.132-8.118,18.132-18.131v-153.89
	H384.545z"/>
<path style="fill:#414B82;" d="M428.314,296.562v153.89c0,10.013,8.118,18.131,18.132,18.131s18.132-8.118,18.132-18.131v-153.89
	H428.314z"/>
<g>
	<circle style="fill:#80391B;" cx="424.395" cy="119.425" r="31.314"/>
	<path style="fill:#80391B;" d="M501.385,196.299c-0.093-18.604-15.158-35.578-37.68-35.578c-14.048,0-79.557,0-79.557,0l0,0
		c-20.887,0-36.61,16.655-36.705,35.578v20.679l0,0v90.326c-0.042,8.345,6.689,15.143,15.034,15.185h0.077
		c8.31,0,15.066-6.714,15.108-15.034c0-11.875,0-97.229,0-111.004c0.015-3.039,3.057-5.51,6.095-5.51h0.787v114.581h80.034
		l-0.001-114.584c0,0,1.8-0.241,3.754,0.945c1.868,1.133,2.827,2.938,2.835,4.568c0,13.745,0,98.895,0,111.005
		c0.042,8.319,6.798,15.033,15.108,15.033h0.077c8.345-0.042,15.076-6.841,15.034-15.185L501.385,196.299z"/>
</g>
<path style="fill:#FF3C3C;" d="M463.706,160.722h-22.873c0,0.003,0.001,0.006,0.001,0.008c0.404,9.03-7.974,16.72-16.72,16.72
	c-9.374,0-16.315-7.661-16.72-16.72c0-0.003,0-0.006,0-0.008c-13.129,0-23.244,0-23.244,0c-20.887,0-36.61,16.655-36.705,35.578
	v20.679l0,0v8.969h30.219v-29.497c0.015-3.039,3.057-5.51,6.095-5.51h0.787v114.581h80.034l-0.001-114.584
	c0,0,1.8-0.241,3.754,0.945c1.868,1.133,2.827,2.937,2.835,4.568v29.497h30.219v-29.648
	C501.292,177.696,486.227,160.722,463.706,160.722z"/>
<path style="fill:#FFB69E;" d="M164.712,150.903c-0.099-19.741-16.493-35.801-36.543-35.801H46.542
	c-20.05,0-36.444,16.06-36.543,35.801c0,0.025,0,0.051,0,0.076v111.705c0,8.398,6.808,15.205,15.205,15.205
	s15.205-6.808,15.205-15.205V151.03c0.032-2.892,2.948-5.518,6.133-5.518h0.547v115.616h80.537V145.511h0.544
	c3.186,0,6.101,2.627,6.133,5.518v111.654c0,8.398,6.808,15.205,15.205,15.205s15.205-6.808,15.205-15.205V150.98
	C164.712,150.953,164.712,150.928,164.712,150.903z"/>
<path style="fill:#343E6B;" d="M109.38,425.214c-10.077,0-18.246-8.169-18.246-18.246V261.126c0-10.077,8.169-18.246,18.246-18.246
	s18.246,8.169,18.246,18.246v145.841C127.626,417.045,119.457,425.214,109.38,425.214z"/>
<path style="fill:#414B82;" d="M65.335,425.214c-10.077,0-18.246-8.169-18.246-18.246V261.126c0-10.077,8.169-18.246,18.246-18.246
	s18.246,8.169,18.246,18.246v145.841C83.58,417.045,75.411,425.214,65.335,425.214z"/>
<path style="fill:#243678;" d="M164.712,150.903c-0.099-19.741-16.493-35.801-36.543-35.801h-25.548
	c-0.101,7.935-7.544,14.555-15.304,14.555c-8.317,0-14.522-6.597-15.226-14.555H46.542c-20.05,0-36.444,16.06-36.543,35.801
	c0,0.025,0,0.051,0,0.076v111.705c0,8.398,6.808,15.205,15.205,15.205s15.205-6.808,15.205-15.205V151.03
	c0.032-2.892,2.948-5.518,6.133-5.518h0.547v115.616h80.537V145.511h0.544c3.186,0,6.101,2.627,6.133,5.518v111.654
	c0,8.398,6.808,15.205,15.205,15.205s15.205-6.808,15.205-15.205V150.98C164.712,150.953,164.712,150.928,164.712,150.903z"/>
<g>
	<path style="fill:#FFB69E;" d="M9.994,262.293v0.391c0,8.398,6.808,15.205,15.205,15.205s15.205-6.808,15.205-15.205v-0.391H9.994z
		"/>
	<path style="fill:#FFB69E;" d="M134.298,262.293v0.391c0,8.398,6.808,15.205,15.205,15.205s15.205-6.808,15.205-15.205v-0.391
		H134.298z"/>
	<circle style="fill:#FFB69E;" cx="87.35" cy="73.884" r="31.512"/>
</g>
<path style="fill:#373C41;" d="M502.108,468.608h-161.64c0-16.405,0-62.966,0-79.364c0-4.099-3.323-7.421-7.422-7.421H178.827
	c-4.099,0-7.422,3.323-7.422,7.421v35.971v6.076c-0.634-3.455-3.655-6.076-7.293-6.076H9.893c-4.099,0-7.422,3.323-7.422,7.422
	c0,16.402,0,62.974,0,79.363c22.902,0,478.441,0,499.635,0c4.099,0,7.422-3.323,7.422-7.421V476.03
	C509.529,471.93,506.206,468.608,502.108,468.608z"/>
<g>
</g>
<g>
</g>
<g>
</g>
<g>
</g>
<g>
</g>
<g>
</g>
<g>
</g>
<g>
</g>
<g>
</g>
<g>
</g>
<g>
</g>
<g>
</g>
<g>
</g>
<g>
</g>
<g>
</g>
</svg>
