<?xml version="1.0" encoding="iso-8859-1"?>
<!-- Generator: Adobe Illustrator 19.0.0, SVG Export Plug-In . SVG Version: 6.00 Build 0)  -->
<svg version="1.1" id="Capa_1" xmlns="http://www.w3.org/2000/svg" xmlns:xlink="http://www.w3.org/1999/xlink" x="0px" y="0px"
	 viewBox="0 0 512 512" style="enable-background:new 0 0 512 512;" xml:space="preserve">
<path style="fill:#2896FF;" d="M183.294,101.945c0-7.42-6.015-13.435-13.435-13.435H96.588c-7.42,0-13.435,6.015-13.435,13.435
	v10.172h100.141L183.294,101.945L183.294,101.945z"/>
<circle style="fill:#FFB69E;" cx="133.224" cy="47.226" r="41.336"/>
<path style="fill:#414B82;" d="M162.109,506.11c-13.217,0-23.933-10.715-23.933-23.932V290.887
	c0-13.217,10.715-23.932,23.933-23.932s23.933,10.715,23.933,23.932v191.291C186.042,495.395,175.327,506.11,162.109,506.11z"/>
<path style="fill:#5F6E9B;" d="M104.339,506.11c-13.217,0-23.933-10.715-23.933-23.932V290.887
	c0-13.217,10.715-23.932,23.933-23.932s23.933,10.715,23.933,23.932v191.291C128.27,495.395,117.556,506.11,104.339,506.11z"/>
<path style="fill:#FFB69E;" d="M264.132,194.897c3.737-7.064,2.897-15.675-2.134-21.883l-44.971-55.487
	c-8.137-10.038-20.214-15.796-33.137-15.796c-10.897,0-90.041,0-101.332,0c-12.922,0-24.999,5.758-33.136,15.796L4.449,173.014
	c-5.031,6.207-5.871,14.819-2.134,21.883c3.734,7.06,11.32,11.214,19.291,10.548l58.8-4.919v92.327l0,0h105.637l0,0v-92.327
	c62.145,5.174,58.929,4.989,60.467,4.989C253.849,205.514,260.657,201.465,264.132,194.897z M80.406,160.5l-15.522,1.298
	l15.522-19.151V160.5z M186.042,160.5v-17.853l15.522,19.152L186.042,160.5z"/>
<path style="fill:#243678;" d="M264.132,194.897c3.737-7.064,2.897-15.675-2.134-21.883l-44.971-55.487
	c-8.137-10.038-20.214-15.796-33.137-15.796h-30.583c0.607,11.14-9.635,20.371-20.128,20.371c-11.365,0-19.797-9.373-20.151-20.371
	h-30.47c-12.922,0-24.999,5.758-33.136,15.796L4.449,173.014c-5.031,6.207-5.871,14.819-2.134,21.883
	c3.734,7.06,11.32,11.214,19.291,10.548l58.8-4.919v92.327h105.637v-92.327c62.145,5.174,58.929,4.989,60.467,4.989
	C253.849,205.514,260.657,201.465,264.132,194.897z M80.406,160.5l-15.522,1.298l15.522-19.151V160.5z M186.042,160.5v-17.853
	l15.522,19.152L186.042,160.5z"/>
<g>
	<path style="fill:#1E73BE;" d="M98.952,212.775h-5.495c-2.974,0-5.386-2.411-5.386-5.386V101.731h16.267v105.658
		C104.338,210.363,101.926,212.775,98.952,212.775z"/>
	<path style="fill:#1E73BE;" d="M172.99,212.775h-5.495c-2.974,0-5.386-2.411-5.386-5.386V101.731h16.267v105.658
		C178.375,210.363,175.965,212.775,172.99,212.775z"/>
</g>
<g>
	<path style="fill:#FFB69E;" d="M119.825,177.214c-0.92-10.976-10.554-19.131-21.536-18.211l-17.883,1.496v40.026l21.208-1.774
		C112.59,197.833,120.743,188.19,119.825,177.214z"/>
	<path style="fill:#FFB69E;" d="M186.042,160.5l-17.882-1.496c-10.968-0.91-20.619,7.235-21.536,18.211
		c-0.919,10.976,7.235,20.619,18.211,21.536l21.207,1.774V160.5z"/>
</g>
<g>
	<polygon style="fill:#243678;" points="98.287,159.003 80.406,160.5 80.406,200.526 101.614,198.752 	"/>
	<polygon style="fill:#243678;" points="186.042,160.5 168.161,159.003 164.834,198.752 186.042,200.526 	"/>
</g>
<path style="fill:#2896FF;" d="M428.823,101.945c0-7.42-6.015-13.435-13.435-13.435h-73.27c-7.42,0-13.435,6.015-13.435,13.435
	v10.172h100.141L428.823,101.945L428.823,101.945z"/>
<circle style="fill:#BA6746;" cx="378.755" cy="47.226" r="41.336"/>
<path style="fill:#414B82;" d="M407.639,506.11c-13.217,0-23.933-10.715-23.933-23.932V290.887
	c0-13.217,10.715-23.932,23.933-23.932c13.217,0,23.932,10.715,23.932,23.932v191.291
	C431.571,495.395,420.856,506.11,407.639,506.11z"/>
<path style="fill:#5F6E9B;" d="M349.867,506.11c-13.217,0-23.932-10.715-23.932-23.932V290.887
	c0-13.217,10.715-23.932,23.932-23.932c13.217,0,23.933,10.715,23.933,23.932v191.291C373.8,495.395,363.084,506.11,349.867,506.11z
	"/>
<path style="fill:#BA6746;" d="M507.526,173.014l-44.971-55.487c-8.137-10.038-20.214-15.796-33.137-15.796
	c-6.253,0-34.978,0-60.46,0h-0.001h-43.238c-25.419,0-46.924,20.68-47.052,46.098v143.828c-0.054,10.812,8.667,19.621,19.479,19.676
	c11.096,0,19.622-8.888,19.676-19.479V148.025c0.02-3.936,3.961-7.139,7.897-7.139h0.215v151.967h105.637v-92.327
	c62.145,5.175,58.929,4.989,60.467,4.989C508.789,205.514,518.071,186.025,507.526,173.014z M431.571,160.5v-17.853l15.522,19.152
	L431.571,160.5z"/>
<path style="fill:#243678;" d="M507.526,173.014l-44.971-55.487c-8.137-10.038-20.214-15.796-33.137-15.796h-30.583
	c0.607,11.14-9.635,20.371-20.128,20.371c-11.365,0-19.797-9.373-20.151-20.371h-5.295h-25.174h-2.367
	c-25.419,0-46.924,20.68-47.052,46.098v144.025h39.155V148.025c0.02-3.936,3.961-7.139,7.897-7.139h0.215v151.967h105.637v-92.327
	c62.145,5.175,58.929,4.989,60.467,4.989C508.789,205.514,518.071,186.025,507.526,173.014z M431.571,160.5v-17.853l15.522,19.152
	L431.571,160.5z"/>
<g>
	<path style="fill:#1E73BE;" d="M344.481,212.775h-5.495c-2.974,0-5.386-2.411-5.386-5.386V101.731h16.267v105.658
		C349.867,210.363,347.455,212.775,344.481,212.775z"/>
	<path style="fill:#1E73BE;" d="M418.519,212.775h-5.495c-2.974,0-5.386-2.411-5.386-5.386V101.731h16.267v105.658
		C423.905,210.363,421.493,212.775,418.519,212.775z"/>
</g>
<path style="fill:#BA6746;" d="M431.571,160.5l-17.882-1.496c-10.968-0.91-20.619,7.235-21.536,18.211
	c-0.919,10.976,7.235,20.619,18.211,21.536l21.207,1.774V160.5z"/>
<polygon style="fill:#243678;" points="431.571,160.5 413.689,159.003 410.364,198.752 431.571,200.526 "/>
<g>
</g>
<g>
</g>
<g>
</g>
<g>
</g>
<g>
</g>
<g>
</g>
<g>
</g>
<g>
</g>
<g>
</g>
<g>
</g>
<g>
</g>
<g>
</g>
<g>
</g>
<g>
</g>
<g>
</g>
</svg>
