<?xml version="1.0" encoding="iso-8859-1"?>
<!-- Generator: Adobe Illustrator 19.0.0, SVG Export Plug-In . SVG Version: 6.00 Build 0)  -->
<svg version="1.1" id="Capa_1" xmlns="http://www.w3.org/2000/svg" xmlns:xlink="http://www.w3.org/1999/xlink" x="0px" y="0px"
	 viewBox="0 0 511.99 511.99" style="enable-background:new 0 0 511.99 511.99;" xml:space="preserve">
<g>
	<path style="fill:#A03C19;" d="M48.475,511.094c-6.865-2.647-10.284-10.36-7.636-17.225L88.803,369.5
		c2.647-6.865,10.357-10.287,17.225-7.636c6.865,2.647,10.284,10.36,7.636,17.225L65.701,503.457
		C63.045,510.343,55.322,513.735,48.475,511.094z"/>
	<path style="fill:#A03C19;" d="M234.03,503.457l-47.965-124.369c-2.648-6.865,0.771-14.577,7.636-17.225
		c6.866-2.647,14.578,0.771,17.225,7.636l47.965,124.369c2.648,6.866-0.771,14.578-7.636,17.225
		C244.404,513.735,236.684,510.34,234.03,503.457z"/>
</g>
<path style="fill:#414B82;" d="M298.323,287.839c-0.028,0-0.057,0-0.086,0h-76.001l34.238-119.503
	c5.476-19.113-5.579-39.045-24.692-44.521c-51.878-14.863-105.519,17.653-116.28,70.591l-15.277,75.148
	c-3.806,18.723,0.999,38.165,13.088,52.96c13.809,16.898,31.713,23.395,53.279,23.395c0.028,0,89.058,0,89.058,0L205.616,472.35
	c-5.888,14.878,1.401,31.712,16.279,37.6c14.88,5.888,31.713-1.403,37.6-16.279l65.767-166.199
	C332.778,308.48,318.761,287.839,298.323,287.839z"/>
<path style="fill:#6C9BAA;" d="M256.474,168.335c5.476-19.113-5.579-39.045-24.692-44.521c-1.516-0.434-14.365-5.147-31.798-11.6
	c-33.357-12.347-69.857,8.03-76.842,42.907l-22.917,114.433c-2.872,14.125-0.842,28.66,5.519,41.299l116.492-23.015L256.474,168.335
	z"/>
<path style="fill:#CD5014;" d="M239.7,365.866c0,11.038-8.948,19.985-19.985,19.985H79.819c-9.551,0-17.768-6.759-19.61-16.131
	l-36.64-186.398c-2.129-10.83,4.925-21.336,15.755-23.465c10.826-2.13,21.336,4.925,23.465,15.755l33.47,170.268h123.456
	C230.753,345.881,239.7,354.829,239.7,365.866z"/>
<path style="fill:#87AFB9;" d="M390.708,250.822c-15.108,0-30.353-4.486-43.614-13.827c-16.58-11.679-27.618-29.114-31.083-49.095
	c-3.443-19.851,0.999-39.853,12.509-56.369l13.594-21.393l26.565,16.881l-14.2,22.313c-6.836,9.706-9.485,21.493-7.456,33.19
	c2.028,11.697,8.492,21.905,18.197,28.741c20.035,14.113,47.818,9.295,61.933-10.741l25.73,18.126
	C438.115,239.611,414.587,250.822,390.708,250.822z"/>
<path style="fill:#46738C;" d="M476.211,219.375H391.23c-6.953,0-12.589-5.637-12.589-12.59s5.637-12.59,12.589-12.59h84.981
	c6.953,0,12.589,5.637,12.589,12.59C488.801,213.738,483.164,219.375,476.211,219.375z"/>
<path style="fill:#C8E6EB;" d="M376.791,159.705l-83.93-59.228c-2.922-2.062-3.619-6.103-1.557-9.025l8.775-12.434
	c2.062-2.922,6.103-3.619,9.025-1.557l83.93,59.228c2.922,2.062,3.619,6.103,1.557,9.025l-8.775,12.434
	C383.754,161.07,379.713,161.767,376.791,159.705z"/>
<g>
	<circle style="fill:#B05F3F;" cx="246.035" cy="53.29" r="53.29"/>
	<path style="fill:#B05F3F;" d="M256.272,244.244l-76.095-75.185c-10.027-9.907-10.125-26.068-0.217-36.095
		c9.905-10.027,26.067-10.125,36.095-0.217l52.206,51.582l29.554-53.04c6.861-12.314,22.407-16.734,34.72-9.872
		c12.314,6.861,16.733,22.406,9.872,34.72l-45.901,82.375C288.323,253.201,268.316,256.142,256.272,244.244z"/>
</g>
<path style="fill:#A5C8CD;" d="M255.419,171.639l-39.365-38.895c-4.815-4.757-11.323-7.407-18.092-7.366s-13.244,2.77-18.001,7.585
	c-9.908,10.027-9.811,26.188,0.217,36.095l41.153,40.661L255.419,171.639z"/>
<path style="fill:#692823;" d="M410.242,264.284c0,7.358-5.966,13.324-13.324,13.324H257.876c-7.358,0-13.324-5.966-13.324-13.324
	s5.966-13.324,13.324-13.324h139.042C404.276,250.961,410.242,256.926,410.242,264.284z"/>
<g>
</g>
<g>
</g>
<g>
</g>
<g>
</g>
<g>
</g>
<g>
</g>
<g>
</g>
<g>
</g>
<g>
</g>
<g>
</g>
<g>
</g>
<g>
</g>
<g>
</g>
<g>
</g>
<g>
</g>
</svg>
