<?xml version="1.0" encoding="iso-8859-1"?>
<!-- Generator: Adobe Illustrator 19.0.0, SVG Export Plug-In . SVG Version: 6.00 Build 0)  -->
<svg version="1.1" id="Capa_1" xmlns="http://www.w3.org/2000/svg" xmlns:xlink="http://www.w3.org/1999/xlink" x="0px" y="0px"
	 viewBox="0 0 511.999 511.999" style="enable-background:new 0 0 511.999 511.999;" xml:space="preserve">
<path style="fill:#6C9BAA;" d="M349.132,333.689c7.132-18.024-6.164-37.628-25.577-37.628h-63.286l1.766-112.141
	c0.335-21.283-16.748-38.837-38.106-38.989l-31.09-0.043c-23.612-0.033-42.78,19.137-42.739,42.753l0.217,125.715
	c0.028,10.212,4.124,19.991,11.381,27.175c7.257,7.184,17.077,10.659,27.289,10.583h70.416l0.001-0.04h23.687l-49.116,123.29
	c-5.59,14.125,1.33,30.108,15.456,35.698c14.128,5.59,30.109-1.335,35.698-15.456L349.132,333.689z"/>
<g>
	<path style="fill:#A03C19;" d="M117.435,511.171c-6.345-2.447-9.506-9.575-7.057-15.92l46.36-121.055
		c2.447-6.345,9.576-9.504,15.92-7.058c6.345,2.447,9.506,9.575,7.057,15.92l-46.36,121.055
		C130.901,510.478,123.763,513.611,117.435,511.171z"/>
	<path style="fill:#A03C19;" d="M288.932,504.112l-46.958-121.054c-2.447-6.345,0.713-13.473,7.058-15.92
		c6.343-2.448,13.474,0.712,15.92,7.058l46.958,121.054c2.447,6.345-0.713,13.473-7.058,15.92
		C298.547,513.603,291.394,510.498,288.932,504.112z"/>
</g>
<path style="fill:#CD5014;" d="M301.693,367.635c0,9.192-7.452,16.643-16.643,16.643H138.911c-7.954,0-14.797-5.628-16.33-13.433
	L86.857,189.11c-1.773-9.019,4.102-17.768,13.121-19.541c9.019-1.768,17.768,4.101,19.541,13.121l33.083,168.302h132.449
	C294.242,350.991,301.693,358.443,301.693,367.635z"/>
<path style="fill:#414B82;" d="M323.555,296.061h-63.286l-109.812,20.351c0.751,9.09,4.71,17.656,11.24,24.12
	c6.752,6.683,15.722,10.152,25.161,10.543h72.545l0,0h23.687l0,0l0,0l-49.115,123.289c-6.004,15.173,2.439,32.17,18.124,36.601
	c13.417,3.794,27.792-3.12,33.031-16.358l64.005-160.916C356.278,315.629,342.918,296.061,323.555,296.061z"/>
<path style="fill:#FFB69E;" d="M192.995,187.011c-4.714-11.742,0.985-25.083,12.728-29.795l83.923-33.686L305.803,19.4
	c1.941-12.503,13.648-21.065,26.153-19.126c12.503,1.94,21.067,13.648,19.127,26.152l-18.158,117.019
	c-1.241,7.991-6.601,14.737-14.106,17.748l-96.029,38.545C211.071,204.444,197.717,198.775,192.995,187.011z"/>
<path style="fill:#A5C8CD;" d="M245.246,141.352l-39.524,15.864c-11.743,4.713-17.442,18.053-12.728,29.795
	c4.721,11.762,18.071,17.435,29.795,12.728l43.267-17.366L245.246,141.352z"/>
<circle style="fill:#FFB69E;" cx="236.736" cy="76.28" r="50.597"/>
<path style="fill:#692823;" d="M413.143,286.29H284.635c-6.801,0-12.315-5.513-12.315-12.314s5.514-12.314,12.315-12.314h128.507
	c6.801,0,12.315,5.513,12.315,12.314S419.945,286.29,413.143,286.29z"/>
<g>
</g>
<g>
</g>
<g>
</g>
<g>
</g>
<g>
</g>
<g>
</g>
<g>
</g>
<g>
</g>
<g>
</g>
<g>
</g>
<g>
</g>
<g>
</g>
<g>
</g>
<g>
</g>
<g>
</g>
</svg>
