<?xml version="1.0" encoding="iso-8859-1"?>
<!-- Generator: Adobe Illustrator 19.0.0, SVG Export Plug-In . SVG Version: 6.00 Build 0)  -->
<svg version="1.1" id="Capa_1" xmlns="http://www.w3.org/2000/svg" xmlns:xlink="http://www.w3.org/1999/xlink" x="0px" y="0px"
	 viewBox="0 0 512 512" style="enable-background:new 0 0 512 512;" xml:space="preserve">
<path style="fill:#46738C;" d="M466.913,294.67H143.054c-15.621,0-28.284-12.663-28.284-28.284V68.035
	c0-15.621,12.663-28.284,28.284-28.284h323.859c15.621,0,28.284,12.663,28.284,28.284v198.351
	C495.197,282.006,482.534,294.67,466.913,294.67z"/>
<g>
	<path style="fill:#FFFFFF;" d="M238.234,189.514v-9.769h-9.769c-2.82,0-4.734-2.518-4.734-6.345c0-3.626,1.914-6.446,4.734-6.446
		h9.769v-9.669c0-2.417,2.82-4.834,6.446-4.834c3.828,0,6.346,2.417,6.346,4.834v9.669h9.668c2.417,0,4.834,2.82,4.834,6.446
		c0,3.827-2.417,6.345-4.834,6.345h-9.668v9.769c0,2.82-2.518,4.734-6.346,4.734C241.054,194.248,238.234,192.334,238.234,189.514z"
		/>
	<path style="fill:#FFFFFF;" d="M270.261,188.205l11.38-15.107L271.369,159.4c-0.403-0.503-1.007-1.511-1.007-2.518
		c0-3.525,6.547-7.856,10.575-7.856c0.604,0,2.417,0.101,3.324,1.612l8.058,13.194l8.159-13.093
		c0.806-1.309,2.417-1.712,3.525-1.712c3.626,0,10.374,4.332,10.374,7.856c0,0.806-0.302,1.511-1.007,2.518l-10.374,13.798
		l11.481,15.007c0.403,0.503,0.907,1.611,0.907,2.619c0,3.324-6.145,7.756-10.273,7.756c-1.208,0-2.72-0.403-3.525-1.612
		l-9.266-13.899l-9.165,13.899c-0.806,1.108-2.619,1.612-3.727,1.612c-3.223,0-10.071-4.13-10.071-7.756
		C269.354,189.917,269.757,188.91,270.261,188.205z"/>
	<path style="fill:#FFFFFF;" d="M326.662,157.083h26.186c2.417,0,4.834,2.82,4.834,6.446c0,3.828-2.417,6.346-4.834,6.346h-26.186
		c-2.82,0-4.734-2.518-4.734-6.346C321.928,159.904,323.842,157.083,326.662,157.083z M326.662,177.529h26.186
		c2.417,0,4.834,2.82,4.834,6.446c0,3.828-2.417,6.346-4.834,6.346h-26.186c-2.82,0-4.734-2.518-4.734-6.346
		C321.928,180.348,323.842,177.529,326.662,177.529z"/>
	<path style="fill:#FFFFFF;" d="M394.344,158.997c-5.54,4.331-5.64,7.353-5.64,12.589c0,1.914-1.007,4.13-5.943,4.13
		c-4.129,0-5.54-1.511-5.54-6.749c0-8.661,3.827-12.791,6.748-15.309c3.324-2.82,8.964-5.942,8.964-11.38
		c0-4.633-4.029-6.85-9.064-6.85c-10.272,0-8.058,7.756-13.496,7.756c-2.719,0-6.043-1.813-6.043-5.741
		c0-5.439,6.245-13.496,19.841-13.496c12.892,0,21.453,7.151,21.453,16.619C405.624,150.033,397.063,156.882,394.344,158.997z
		 M390.617,190.421c0,4.13-3.425,7.756-7.756,7.756c-4.331,0-7.655-3.626-7.655-7.756c0-4.23,3.425-7.756,7.655-7.756
		C387.092,182.665,390.617,186.19,390.617,190.421z"/>
</g>
<path style="fill:#1B224A;" d="M124.244,259.299c-7.819,0-15.256-4.581-18.525-12.224c-4.375-10.226,0.369-22.062,10.595-26.436
	l60.069-25.694l-0.289-45.62c-0.021-4.076-3.331-7.371-7.381-7.371h-54.143c-11.122,0-20.139-9.016-20.139-20.139
	s9.016-20.139,20.139-20.139h54.143c26.146,0,47.525,21.272,47.657,47.418l0.374,58.975c0.051,8.107-4.765,15.455-12.218,18.644
	l-72.373,30.956C129.572,258.776,126.886,259.299,124.244,259.299z"/>
<circle style="fill:#FFB69E;" cx="114.823" cy="41.738" r="41.738"/>
<g>
	<path style="fill:#414B82;" d="M143.938,512c-13.347,0-24.167-10.819-24.167-24.166V263.673c0-13.347,10.819-24.166,24.167-24.166
		c13.347,0,24.167,10.819,24.167,24.166v224.162C168.104,501.181,157.285,512,143.938,512z"/>
	<path style="fill:#414B82;" d="M85.601,512c-13.347,0-24.167-10.819-24.167-24.166V263.673c0-13.347,10.819-24.166,24.167-24.166
		s24.167,10.819,24.167,24.166v224.162C109.768,501.181,98.948,512,85.601,512z"/>
</g>
<rect x="61.437" y="121.813" style="fill:#252D5C;" width="106.674" height="172.86"/>
<polyline style="fill:#1B224A;" points="114.769,121.816 168.104,121.816 168.104,294.67 114.769,294.67 "/>
<path style="fill:#252D5C;" d="M85.17,228.382c-5.778,0-11.348-2.491-15.209-6.94c-4.033-4.648-39.682-45.877-49.175-62.05
	c-0.59-1.004-1.091-2.058-1.499-3.149c-4.489-12.02-2.843-24.998,4.519-35.604c8.117-11.695,22.335-18.961,37.105-18.961h43.441
	l1.071-2.802c3.973-10.389,15.611-15.59,26.002-11.619c10.388,3.972,15.591,15.614,11.618,26.002l-39.063,102.176
	c-2.527,6.611-8.34,11.409-15.309,12.64C87.505,228.281,86.333,228.382,85.17,228.382z M57.948,142.739
	c4.403,6.358,12.268,16.291,20.601,26.433l10.405-27.218H60.911C59.698,141.954,58.67,142.326,57.948,142.739z"/>
<path style="fill:#FFB69E;" d="M143.045,113.258c3.973-10.388-1.23-22.031-11.618-26.002c-10.391-3.971-22.03,1.23-26.002,11.619
	L143.045,113.258z"/>
<path style="fill:#1B224A;" d="M105.719,247.075c-4.375-10.226,0.369-22.062,10.595-26.435l72.373-30.957
	c10.229-4.373,22.062,0.371,26.436,10.596c4.375,10.226-0.369,22.062-10.595,26.435l-72.373,30.957
	C121.962,262.03,110.108,257.336,105.719,247.075z"/>
<path style="fill:#FFB69E;" d="M116.313,220.639c-10.226,4.374-14.97,16.209-10.595,26.435c4.389,10.26,16.243,14.954,26.435,10.596
	L116.313,220.639z"/>
<g>
	
		<rect x="123.835" y="217.039" transform="matrix(-0.9194 0.3933 -0.3933 -0.9194 340.5678 404.5694)" style="fill:#FFFFFF;" width="9.997" height="40.277"/>
	<polygon style="fill:#FFFFFF;" points="143.045,113.258 139.481,122.581 101.731,108.341 105.424,98.875 	"/>
</g>
<g>
</g>
<g>
</g>
<g>
</g>
<g>
</g>
<g>
</g>
<g>
</g>
<g>
</g>
<g>
</g>
<g>
</g>
<g>
</g>
<g>
</g>
<g>
</g>
<g>
</g>
<g>
</g>
<g>
</g>
</svg>
