<?xml version="1.0" encoding="iso-8859-1"?>
<!-- Generator: Adobe Illustrator 19.0.0, SVG Export Plug-In . SVG Version: 6.00 Build 0)  -->
<svg version="1.1" id="Capa_1" xmlns="http://www.w3.org/2000/svg" xmlns:xlink="http://www.w3.org/1999/xlink" x="0px" y="0px"
	 viewBox="0 0 511.999 511.999" style="enable-background:new 0 0 511.999 511.999;" xml:space="preserve">
<path style="fill:#414B82;" d="M258.465,156.76l-45.86-8.673c-14.203-2.686-27.895,6.65-30.58,20.853
	c-0.019,0.101-24.954,131.944-24.954,131.944s0.852,13.693,3.853,68.236l-65.579,9.185c-11.521,1.614-19.553,12.261-17.939,23.783
	c1.61,11.489,12.232,19.558,23.783,17.939l84.745-11.87c10.837-1.518,18.708-11.081,18.111-22.01l-4.215-77.177l54.535,10.313
	l24.954-131.944C282.005,173.137,272.668,159.445,258.465,156.76z"/>
<path style="fill:#FFB69E;" d="M286.457,244.191l-71.11-57.078c-6.942-6.743-7.101-17.837-0.358-24.778
	c6.742-6.941,17.838-7.102,24.835-0.314l60.735,46.999l51.705-36.157c7.935-5.536,18.86-3.593,24.398,4.345
	c5.537,7.936,3.592,18.859-4.344,24.397l-63.625,44.389C301.851,250.767,292.521,250.081,286.457,244.191z"/>
<path style="fill:#FA870A;" d="M388.286,122.075c12.214-23.481,24.429-46.963,36.643-70.445
	C357.167,65.425,328.062,4.903,270.017,0.019c-2.439-0.205-4.694,1.314-5.419,3.652c-0.725,2.338,0.273,4.866,2.4,6.079
	C313.197,36.099,331.845,115.414,388.286,122.075z"/>
<path style="fill:#823214;" d="M251.882,384.307c-4.821-2.507-6.697-8.449-4.189-13.27l168.535-324
	c2.507-4.822,8.45-6.696,13.27-4.189c4.821,2.508,6.697,8.449,4.189,13.27L265.153,380.12
	C262.644,384.941,256.702,386.817,251.882,384.307z"/>
<path style="fill:#414B82;" d="M246.072,493.505l-12.895-104.824l-28.386-84.724c-3.695-11.03,2.25-22.969,13.281-26.664
	c11.026-3.696,22.969,2.25,26.664,13.281l29.061,86.738c0.449,1.338,0.761,2.719,0.935,4.12l13.154,106.93
	c1.42,11.546-6.788,22.058-18.336,23.478C258.024,513.261,247.495,505.07,246.072,493.505z"/>
<path style="fill:#FF3C3C;" d="M254.366,319.284l-97.294-18.401l24.954-131.944c2.686-14.203,16.377-23.539,30.58-20.853
	l45.86,8.673c14.203,2.686,23.539,16.377,20.853,30.58L254.366,319.284z"/>
<g>
	<circle style="fill:#FFB69E;" cx="251.93" cy="101.859" r="38.744"/>
	<path style="fill:#FFB69E;" d="M102.239,251.807l25.971-65.145c2.178-5.461,6.942-9.468,12.695-10.678l83.66-17.581
		c9.488-1.994,18.794,4.081,20.789,13.569c1.999,9.486-4.081,18.794-13.569,20.789l-74.449,15.646l-22.487,56.402
		c-3.59,9.005-13.8,13.395-22.806,9.804C103.049,271.028,98.644,260.82,102.239,251.807z"/>
</g>
<path style="fill:#DC1428;" d="M245.354,171.971c-1.994-9.487-11.301-15.563-20.789-13.569l-42.16,8.861l6.493,34.51l42.888-9.013
	C241.273,190.766,247.353,181.458,245.354,171.971z"/>
<g>
</g>
<g>
</g>
<g>
</g>
<g>
</g>
<g>
</g>
<g>
</g>
<g>
</g>
<g>
</g>
<g>
</g>
<g>
</g>
<g>
</g>
<g>
</g>
<g>
</g>
<g>
</g>
<g>
</g>
</svg>
