<?xml version="1.0" encoding="iso-8859-1"?>
<!-- Generator: Adobe Illustrator 19.0.0, SVG Export Plug-In . SVG Version: 6.00 Build 0)  -->
<svg version="1.1" id="Capa_1" xmlns="http://www.w3.org/2000/svg" xmlns:xlink="http://www.w3.org/1999/xlink" x="0px" y="0px"
	 viewBox="0 0 512 512" style="enable-background:new 0 0 512 512;" xml:space="preserve">
<g>
	<path style="fill:#414B82;" d="M105.675,512c-13.476,0-24.401-10.924-24.401-24.401V292.562c0-13.476,10.924-24.401,24.401-24.401
		s24.401,10.924,24.401,24.401v195.037C130.076,501.076,119.152,512,105.675,512z"/>
	<path style="fill:#414B82;" d="M164.579,512c-13.476,0-24.401-10.924-24.401-24.401V292.562c0-13.476,10.924-24.401,24.401-24.401
		c13.476,0,24.401,10.924,24.401,24.401v195.037C188.979,501.076,178.055,512,164.579,512z"/>
</g>
<path style="fill:#252D5C;" d="M337.255,31.733c-5.348-9.937-17.739-13.66-27.677-8.31l-137.2,73.836h-37.25H81.275v0.007
	c-0.83,0.183-13.072-1.706-20.156,9.554l-42.511,67.582c-4.673,7.429-4.081,17.013,1.472,23.808l44.102,53.978
	c4.318,5.285,10.747,7.836,17.093,7.448v32.926h53.852h53.852V134.734L328.945,59.41C338.883,54.062,342.602,41.671,337.255,31.733z
	 M81.275,208.516l-20.253-24.788l20.253-32.196V208.516z"/>
<path style="fill:#1B224A;" d="M337.255,31.733c-5.348-9.937-17.739-13.66-27.677-8.31l-137.2,73.836h-37.25v195.304h53.852V134.734
	L328.945,59.41C338.883,54.062,342.602,41.671,337.255,31.733z"/>
<path style="fill:#FFFFFF;" d="M89.655,218.671L57.54,244.058l6.642,8.13c7.125,8.72,19.993,10.052,28.752,2.895
	c8.739-7.141,10.036-20.013,2.895-28.752L89.655,218.671z"/>
<path style="fill:#BA6746;" d="M64.183,252.188c7.125,8.72,19.993,10.052,28.752,2.895c8.739-7.141,10.036-20.013,2.895-28.752
	L64.183,252.188z"/>
<path style="fill:#FFFFFF;" d="M337.255,31.733c-5.348-9.937-17.739-13.66-27.677-8.31c-1.11,0.598-9.01,4.848-10.048,5.408
	l19.325,36.01l10.09-5.43C338.883,54.062,342.602,41.671,337.255,31.733z"/>
<path style="fill:#BA6746;" d="M337.255,31.733c-5.348-9.937-17.739-13.66-27.677-8.31l19.367,35.987
	C338.883,54.062,342.602,41.671,337.255,31.733z"/>
<circle style="fill:#BA6746;" cx="135.12" cy="42.144" r="42.144"/>
<polygon style="fill:#FFFFFF;" points="104.095,97.259 135.125,178.681 166.154,97.259 "/>
<path style="fill:#FF3C3C;" d="M149.489,130.781c0.388-1.938,0.079-3.951-0.873-5.683l-6.926-12.597l5.974-10.865
	c1.08-1.965-0.344-4.377-2.588-4.377h-19.914c-2.242,0-3.671,2.411-2.588,4.377l5.994,10.901l-6.907,12.562
	c-0.951,1.731-1.261,3.742-0.874,5.679l4.315,21.599l10.024,26.303l10.06-26.397L149.489,130.781z"/>
<circle style="fill:#FFB69E;" cx="455.494" cy="71.426" r="41.035"/>
<g>
	<path style="fill:#414B82;" d="M459.097,511.995c-12.508,0.001-23.034-9.717-23.858-22.378l-7.55-115.906l-33.221-90.576
		c-4.551-12.409,1.819-26.159,14.228-30.71c12.412-4.552,26.159,1.819,30.71,14.228l34.41,93.817
		c0.789,2.15,1.264,4.401,1.413,6.686l7.775,119.351c0.859,13.19-9.137,24.578-22.326,25.437
		C460.147,511.977,459.62,511.995,459.097,511.995z"/>
	<path style="fill:#414B82;" d="M439.009,120.052l-53.379-4.388c-16.532-1.359-31.034,10.941-32.393,27.472l-12.675,153.265
		l11.269,73.471l-30.669,111.861c-3.495,12.747,4.006,25.914,16.753,29.409c2.119,0.581,4.246,0.857,6.342,0.857
		c10.513-0.001,20.154-6.982,23.068-17.611l32.016-116.777c0.888-3.241,1.084-6.634,0.576-9.956l-10.263-66.913l64.205,5.278
		l12.624-153.575C467.841,135.914,455.54,121.411,439.009,120.052z"/>
</g>
<path style="fill:#FF3C3C;" d="M453.857,306.02l-113.245-9.308l12.624-153.575c1.359-16.532,15.862-28.831,32.393-27.472
	l53.379,4.387c16.532,1.359,28.831,15.861,27.472,32.393L453.857,306.02z"/>
<path style="fill:#FFB69E;" d="M473.171,308.881c-5.187,0-10.369-2.011-14.277-6.017l-52.538-53.854
	c-3.118-3.196-5.073-7.347-5.553-11.785l-9.376-86.798c-1.183-10.951,6.736-20.787,17.686-21.971
	c10.952-1.179,20.787,6.736,21.971,17.687l8.636,79.946l47.725,48.921c7.691,7.884,7.535,20.511-0.349,28.203
	C483.217,306.996,478.191,308.881,473.171,308.881z"/>
<path style="fill:#DC1428;" d="M396.403,196.504l39.589-4.921l-4.909-45.439c-1.182-10.951-11.018-18.865-21.971-17.687
	c-10.95,1.183-18.869,11.019-17.686,21.971L396.403,196.504z"/>
<g>
</g>
<g>
</g>
<g>
</g>
<g>
</g>
<g>
</g>
<g>
</g>
<g>
</g>
<g>
</g>
<g>
</g>
<g>
</g>
<g>
</g>
<g>
</g>
<g>
</g>
<g>
</g>
<g>
</g>
</svg>
