<?xml version="1.0" encoding="iso-8859-1"?>
<!-- Generator: Adobe Illustrator 19.0.0, SVG Export Plug-In . SVG Version: 6.00 Build 0)  -->
<svg version="1.1" id="Capa_1" xmlns="http://www.w3.org/2000/svg" xmlns:xlink="http://www.w3.org/1999/xlink" x="0px" y="0px"
	 viewBox="0 0 512.002 512.002" style="enable-background:new 0 0 512.002 512.002;" xml:space="preserve">
<path style="fill:#A5C8CD;" d="M437.872,50.924c-8.048,6.293-8.194,10.682-8.194,18.291c0,2.78-1.463,6-8.634,6
	c-6,0-8.047-2.194-8.047-9.804c0-12.584,5.56-18.584,9.804-22.242c4.829-4.097,13.023-8.634,13.023-16.535
	c0-6.731-5.853-9.951-13.17-9.951c-14.926,0-11.707,11.267-19.608,11.267c-3.951,0-8.78-2.634-8.78-8.341
	c0-7.901,9.073-19.608,28.827-19.608c18.73,0,31.168,10.39,31.168,24.144C454.26,37.9,441.822,47.85,437.872,50.924z
	 M432.458,96.579c0,6-4.976,11.267-11.268,11.267c-6.292,0-11.121-5.268-11.121-11.267c0-6.146,4.975-11.267,11.121-11.267
	C427.336,85.311,432.458,90.432,432.458,96.579z"/>
<g>
	<path style="fill:#A03C19;" d="M80.577,511.192c-6.2-2.391-9.287-9.355-6.896-15.556l43.316-112.315
		c2.39-6.2,9.353-9.289,15.556-6.896c6.2,2.391,9.287,9.355,6.896,15.555L96.133,504.295
		C93.735,510.514,86.76,513.577,80.577,511.192z"/>
	<path style="fill:#A03C19;" d="M248.147,504.295L204.832,391.98c-2.391-6.2,0.697-13.165,6.896-15.555
		c6.201-2.39,13.165,0.697,15.556,6.896l43.316,112.315c2.391,6.201-0.697,13.165-6.896,15.556
		C257.517,513.577,250.544,510.511,248.147,504.295z"/>
</g>
<path style="fill:#414B82;" d="M306.21,309.574c-0.025,0-0.052,0-0.077,0h-68.635l30.919-107.921
	c4.946-17.26-5.038-35.261-22.298-40.206c-22.422-6.424-46.508-3.195-66.447,8.91c-19.938,12.103-33.917,31.983-38.564,54.839
	l-13.797,67.865c-3.438,16.908,0.902,34.466,11.82,47.827c10.917,13.361,27.26,21.11,44.514,21.11h2.916
	c0.229,0.006,0.456,0.017,0.686,0.017c0.025,0,80.426,0,80.426,0l-45.185,114.187c-5.317,13.437,1.265,28.639,14.702,33.956
	c13.439,5.317,28.64-1.267,33.956-14.702l59.393-150.091C337.326,328.215,324.666,309.574,306.21,309.574z"/>
<path style="fill:#55C7A6;" d="M132.296,330.358c-5.745-11.414-7.578-24.541-4.984-37.297l13.796-67.865
	c4.647-22.857,18.626-42.736,38.564-54.839c19.938-12.104,44.024-15.333,66.447-8.91c17.26,4.946,27.244,22.946,22.298,40.206
	l-30.919,107.921L132.296,330.358z"/>
<circle style="fill:#B05F3F;" cx="274.987" cy="104.198" r="48.126"/>
<path style="fill:#CD5014;" d="M235.22,398.088H108.882c-8.626,0-16.046-6.104-17.71-14.568L58.084,215.188
	c-1.923-9.78,4.448-19.268,14.228-21.19c9.777-1.924,19.268,4.448,21.19,14.228l30.226,153.766h111.492
	c9.968,0,18.048,8.08,18.048,18.048C253.269,390.008,245.188,398.088,235.22,398.088z"/>
<path style="fill:#692823;" d="M395.249,300.336H269.683c-6.645,0-12.033-5.387-12.033-12.033s5.387-12.033,12.033-12.033h125.566
	c6.645,0,12.033,5.387,12.033,12.033S401.894,300.336,395.249,300.336z"/>
<path style="fill:#BA6746;" d="M285.138,270.674l-69.592-62.635c-8.951-8.055-9.676-21.842-1.62-30.792
	c8.055-8.951,21.842-9.676,30.792-1.62l39.272,35.346l9.684-66.895c1.726-11.918,12.788-20.179,24.703-18.455
	c11.918,1.725,20.18,12.785,18.455,24.703l-15.529,107.266C318.81,274.804,298.075,282.318,285.138,270.674z"/>
<path style="fill:#39AE96;" d="M275.447,203.283l-30.729-27.657c-8.951-8.055-22.737-7.33-30.792,1.62
	c-8.055,8.951-7.331,22.737,1.62,30.792l31.182,28.065L275.447,203.283z"/>
<g>
</g>
<g>
</g>
<g>
</g>
<g>
</g>
<g>
</g>
<g>
</g>
<g>
</g>
<g>
</g>
<g>
</g>
<g>
</g>
<g>
</g>
<g>
</g>
<g>
</g>
<g>
</g>
<g>
</g>
</svg>
