<?xml version="1.0" encoding="iso-8859-1"?>
<!-- Generator: Adobe Illustrator 19.0.0, SVG Export Plug-In . SVG Version: 6.00 Build 0)  -->
<svg version="1.1" id="Capa_1" xmlns="http://www.w3.org/2000/svg" xmlns:xlink="http://www.w3.org/1999/xlink" x="0px" y="0px"
	 viewBox="0 0 512 512" style="enable-background:new 0 0 512 512;" xml:space="preserve">
<path style="fill:#5F6E9B;" d="M366.418,375.532v121.03c0,8.526,6.912,15.438,15.438,15.438s15.438-6.912,15.438-15.438v-121.03
	H366.418z"/>
<path style="fill:#414B82;" d="M403.685,375.532v121.03c0,8.526,6.912,15.438,15.438,15.438s15.438-6.912,15.438-15.438v-121.03
	H403.685z"/>
<path style="fill:#BA6746;" d="M433.82,249.869c-5.392,0-19.687,0-33.763,0c-0.042,0-0.082-0.006-0.123-0.006h-33.569
	c-11.945,0-23.297,4.527-31.964,12.748l-22.707,21.536l-37.252-11.917c-7.508-2.403-15.543,1.737-17.945,9.246
	c-2.402,7.509,1.737,15.543,9.246,17.946l45.296,14.491c1.428,0.457,2.894,0.679,4.348,0.679c3.602,0,7.133-1.364,9.825-3.917
	l28.836-27.349c3.34-3.167,7.714-4.912,12.317-4.912h0.054v104.749h68.145L434.563,275.6c0,0,1.532-0.205,3.197,0.804
	c1.591,0.965,2.407,2.501,2.414,3.889c0,11.704,0,94.205,0,104.516c0.035,7.083,5.789,12.8,12.864,12.8h0.066
	c7.105-0.036,12.836-5.824,12.801-12.93V280.162C465.823,264.322,452.996,249.869,433.82,249.869z"/>
<path style="fill:#1E2D64;" d="M433.82,249.869h-19.475c0,0.002,0,0.005,0.001,0.007c0.344,7.689-6.79,14.237-14.237,14.237
	c-7.981,0-13.891-6.523-14.237-14.237c0-0.002,0-0.005,0-0.007c-4.037,0-7.725,0-10.805,0v-0.007h-8.703
	c-11.945,0-23.297,4.527-31.964,12.748l-22.707,21.536l-37.252-11.917l-8.699,27.192l45.296,14.491
	c5.015,1.605,10.436,0.306,14.173-3.238l28.836-27.349c3.34-3.167,7.714-4.912,12.317-4.912h0.054v104.749h68.145l-0.001-107.563
	c0,0,1.532-0.205,3.197,0.805c1.591,0.965,2.407,2.501,2.414,3.889v104.516h25.73V280.163
	C465.823,264.322,452.996,249.869,433.82,249.869z"/>
<circle style="fill:#BA6746;" cx="400.199" cy="206.56" r="34.2"/>
<g>
	<path style="fill:#2896FF;" d="M92.724,433.348H57.555c-6.329,0-11.46-5.131-11.46-11.46v-34.812c0-6.329,5.131-11.46,11.46-11.46
		h35.169V433.348z"/>
	<path style="fill:#2896FF;" d="M99.164,360.764c-6.132,0-11.103-4.97-11.103-11.102v-48.849c0-6.132,4.971-11.102,11.103-11.102
		s11.103,4.97,11.103,11.102v48.849C110.267,355.794,105.296,360.764,99.164,360.764z"/>
</g>
<path style="fill:#1E73BE;" d="M128.207,435.901c0,6.329-5.131,11.46-11.46,11.46H78.095c-6.329,0-11.46-5.131-11.46-11.46v-88.102
	c0-6.329,5.131-11.46,11.46-11.46h38.653c6.329,0,11.46,5.131,11.46,11.46v88.102H128.207z"/>
<path style="fill:#5F6E9B;" d="M128.207,280.513v207.088c0,13.475,10.924,24.399,24.4,24.399c13.475,0,24.4-10.924,24.4-24.399
	V280.513H128.207z"/>
<path style="fill:#414B82;" d="M187.107,280.513v207.088c0,13.475,10.924,24.399,24.4,24.399c13.475,0,24.4-10.924,24.4-24.399
	V280.513H187.107z"/>
<g>
	<circle style="fill:#80391B;" cx="181.839" cy="42.14" r="42.14"/>
	<path style="fill:#80391B;" d="M285.439,145.59c-0.125-25.035-20.398-47.877-50.705-47.877c-18.904,0-107.059,0-107.059,0l0,0
		c-28.108,0-49.266,22.412-49.394,47.877v27.828l0,0v121.55c-0.056,11.23,9.001,20.378,20.231,20.435h0.105
		c11.181,0,20.274-9.036,20.33-20.231c0-15.981,0-130.84,0-149.378c0.02-4.089,4.114-7.415,8.202-7.415h1.058V292.57h107.7
		l-0.002-154.194c0,0,2.422-0.324,5.052,1.272c2.514,1.525,3.805,3.953,3.816,6.147c0,18.497,0,133.082,0,149.379
		c0.056,11.194,9.149,20.23,20.33,20.23h0.105c11.229-0.056,20.287-9.205,20.231-20.435V145.59z"/>
</g>
<path style="fill:#55C7A6;" d="M234.734,97.713h-30.779c0,0.004,0.001,0.008,0.001,0.011c0.544,12.152-10.731,22.501-22.501,22.501
	c-12.614,0-21.954-10.31-22.501-22.501c0-0.004,0-0.008,0-0.011c-17.669,0-31.279,0-31.279,0c-28.108,0-49.266,22.412-49.394,47.877
	v27.828l0,0v12.07h40.666v-39.693c0.02-4.089,4.114-7.415,8.202-7.415h1.058v154.19h107.7l-0.002-154.194
	c0,0,2.422-0.324,5.052,1.272c2.514,1.525,3.805,3.952,3.816,6.147v39.693h40.666V145.59
	C285.314,120.555,265.041,97.713,234.734,97.713z"/>
<g>
</g>
<g>
</g>
<g>
</g>
<g>
</g>
<g>
</g>
<g>
</g>
<g>
</g>
<g>
</g>
<g>
</g>
<g>
</g>
<g>
</g>
<g>
</g>
<g>
</g>
<g>
</g>
<g>
</g>
</svg>
