<?xml version="1.0" encoding="iso-8859-1"?>
<!-- Generator: Adobe Illustrator 19.0.0, SVG Export Plug-In . SVG Version: 6.00 Build 0)  -->
<svg version="1.1" id="Capa_1" xmlns="http://www.w3.org/2000/svg" xmlns:xlink="http://www.w3.org/1999/xlink" x="0px" y="0px"
	 viewBox="0 0 512 512" style="enable-background:new 0 0 512 512;" xml:space="preserve">
<g>
	<path style="fill:#414B82;" d="M333.767,512c-12.092,0-21.894-9.802-21.894-21.893V315.11c0-12.092,9.802-21.893,21.894-21.893
		c12.091,0,21.894,9.802,21.894,21.893v174.996C355.66,502.198,345.858,512,333.767,512z"/>
	<path style="fill:#414B82;" d="M280.916,512c-12.092,0-21.894-9.802-21.894-21.893V315.11c0-12.092,9.802-21.893,21.894-21.893
		s21.894,9.802,21.894,21.893v174.996C302.81,502.198,293.007,512,280.916,512z"/>
</g>
<path style="fill:#BA6746;" d="M454.811,29.996c-7.728-6.466-19.234-5.442-25.7,2.286L323.5,158.511c-35.275,0-23.432,0-58.814,0
	l-61.19-20.127L164.831,75.86c-5.156-8.337-16.094-10.916-24.432-5.76c-8.337,5.156-10.916,16.095-5.76,24.432l42.07,68.028
	c2.198,3.555,5.58,6.219,9.551,7.525L259,194.007h0.022V315.11h96.638V176.938L457.097,55.696
	C463.563,47.968,462.539,36.462,454.811,29.996z"/>
<path style="fill:#FF3C3C;" d="M356.863,118.635c-39.978,47.784-32.216,38.506-33.363,39.877h-0.084
	c0.209,8.556-7.746,15.792-16.06,15.792c-8.911,0-15.523-7.209-16.04-15.792h-26.63l-42.726-14.054l-10.066,34.058
	c15.979,5.255,37.099,12.201,47.105,15.492h0.022V315.11h96.638V176.938c5.584-6.674,23.695-28.322,29.276-34.992L356.863,118.635z"
	/>
<circle style="fill:#BA6746;" cx="307.34" cy="104.94" r="37.812"/>
<path style="fill:#C8E6EB;" d="M134.298,146.35l-76.246-19.035c-5.231-1.306-8.414-6.606-7.108-11.837L77.926,7.401
	c1.306-5.231,6.606-8.414,11.837-7.108l76.246,19.035c5.231,1.306,8.414,6.606,7.108,11.837l-26.981,108.078
	C144.829,144.474,139.53,147.656,134.298,146.35z"/>
<g>
</g>
<g>
</g>
<g>
</g>
<g>
</g>
<g>
</g>
<g>
</g>
<g>
</g>
<g>
</g>
<g>
</g>
<g>
</g>
<g>
</g>
<g>
</g>
<g>
</g>
<g>
</g>
<g>
</g>
</svg>
