<?xml version="1.0" encoding="iso-8859-1"?>
<!-- Generator: Adobe Illustrator 19.0.0, SVG Export Plug-In . SVG Version: 6.00 Build 0)  -->
<svg version="1.1" id="Capa_1" xmlns="http://www.w3.org/2000/svg" xmlns:xlink="http://www.w3.org/1999/xlink" x="0px" y="0px"
	 viewBox="0 0 512 512" style="enable-background:new 0 0 512 512;" xml:space="preserve">
<g>
	<path style="fill:#414B82;" d="M170.895,512c-12.64,0-22.887-10.247-22.887-22.887V306.169c0-12.64,10.247-22.887,22.887-22.887
		c12.64,0,22.887,10.247,22.887,22.887v182.944C193.782,501.753,183.535,512,170.895,512z"/>
	<path style="fill:#414B82;" d="M226.146,512c-12.64,0-22.887-10.247-22.887-22.887V306.169c0-12.64,10.247-22.887,22.887-22.887
		s22.888,10.247,22.888,22.887v182.944C249.034,501.753,238.786,512,226.146,512z"/>
</g>
<path style="fill:#373C41;" d="M389.117,113.402c-6.967-7.898-19.021-8.652-26.921-1.682l-51.745,45.657l-28.48-21.466
	c-10.717-8.077-24.01-12.525-37.427-12.525h-61.893c-0.001,0-0.002,0-0.004,0h-35.226c-25.153,0-45.716,20.146-45.84,45.006v140.123
	c0,10.534,8.54,19.074,19.074,19.074s19.074-8.539,19.074-19.074V168.488c0.018-3.64,3.685-6.955,7.694-6.955h0.586v297.691h101.027
	V161.978c3.6,0.691,7.041,2.182,9.977,4.395l40.908,30.834c3.41,2.569,7.449,3.842,11.479,3.842c4.52,0,9.03-1.603,12.621-4.771
	l63.416-55.955C395.333,133.353,396.087,121.3,389.117,113.402z"/>
<g>
	<path style="fill:#FFB69E;" d="M101.58,308.514c0,10.534,8.54,19.074,19.074,19.074s19.074-8.539,19.074-19.074H101.58z"/>
	<path style="fill:#FFB69E;" d="M389.117,113.402c-6.967-7.898-19.021-8.652-26.921-1.682l25.238,28.604
		C395.333,133.353,396.087,121.3,389.117,113.402z"/>
</g>
<path style="fill:#1E2124;" d="M198.738,102.079l-64.455-64.455c-0.921-0.921-1.343-2.229-1.134-3.515s1.025-2.393,2.191-2.974
	L196.93,0.425c1.138-0.567,2.477-0.567,3.615,0l61.592,30.707c1.166,0.581,1.982,1.688,2.191,2.974
	c0.209,1.286-0.212,2.594-1.134,3.515L198.738,102.079z"/>
<circle style="fill:#FFB69E;" cx="198.72" cy="71.256" r="39.527"/>
<path style="fill:#373C41;" d="M232.757,34.633c-22.341-5.721-45.78-5.711-68.118,0.031c-3.129,0.804-5.294,3.661-5.294,6.891
	v26.471c25.117-10.84,53.586-10.854,78.712-0.043V41.526C238.056,38.293,235.888,35.435,232.757,34.633z"/>
<path style="fill:#FFA50A;" d="M142.972,93.569c-2.221,0-4.022-1.801-4.022-4.022V25.433c0-2.221,1.801-4.022,4.022-4.022
	c2.221,0,4.022,1.801,4.022,4.022v64.114C146.994,91.768,145.193,93.569,142.972,93.569z"/>
<polygon style="fill:#FFB69E;" points="237.508,123.377 159.226,123.377 185.771,157.869 198.367,142.505 210.962,157.869 "/>
<polygon style="fill:#FFFFFF;" points="237.508,123.377 213.576,123.377 198.367,141.378 183.158,123.377 159.226,123.377 
	185.771,157.869 198.367,142.505 210.962,157.869 "/>
<path style="fill:#DCBE82;" d="M408.049,166.086c1.37,1.498,2.193,3.417,2.331,5.442c0.855,12.608-11.269,19.793-21.874,12.6
	c-1.67-1.133-2.901-2.786-3.511-4.71c-10.498-33.112-27.469-62.483-50.912-88.114c-1.364-1.491-2.187-3.402-2.329-5.418
	c-0.895-12.694,11.307-19.744,21.858-12.629c1.68,1.133,2.918,2.792,3.53,4.723C367.638,111.088,384.607,140.456,408.049,166.086z"
	/>
<rect x="101.578" y="297.028" style="fill:#FFFFFF;" width="38.147" height="11.489"/>
<g>
</g>
<g>
</g>
<g>
</g>
<g>
</g>
<g>
</g>
<g>
</g>
<g>
</g>
<g>
</g>
<g>
</g>
<g>
</g>
<g>
</g>
<g>
</g>
<g>
</g>
<g>
</g>
<g>
</g>
</svg>
