<?xml version="1.0" encoding="iso-8859-1"?>
<!-- Generator: Adobe Illustrator 19.0.0, SVG Export Plug-In . SVG Version: 6.00 Build 0)  -->
<svg version="1.1" id="Capa_1" xmlns="http://www.w3.org/2000/svg" xmlns:xlink="http://www.w3.org/1999/xlink" x="0px" y="0px"
	 viewBox="0 0 511.991 511.991" style="enable-background:new 0 0 511.991 511.991;" xml:space="preserve">
<path style="fill:#C8E6EB;" d="M362.391,270.301h-78.348c-4.765,0-8.627-3.862-8.627-8.627c0-4.765,3.862-8.627,8.627-8.627h78.348
	c4.765,0,8.627,3.862,8.627,8.627C371.018,266.439,367.156,270.301,362.391,270.301z"/>
<g>
	<path style="fill:#A03C19;" d="M49.982,511.99c-1.365,0-2.752-0.247-4.102-0.767c-5.877-2.266-8.804-8.868-6.537-14.745
		l42.937-112.114c2.266-5.877,8.869-8.802,14.744-6.537c5.877,2.267,8.804,8.868,6.537,14.745L60.625,504.686
		C58.879,509.214,54.56,511.99,49.982,511.99z"/>
	<path style="fill:#A03C19;" d="M215.356,511.99c-4.578,0-8.898-2.776-10.643-7.304l-43.491-112.114
		c-2.266-5.877,0.66-12.478,6.537-14.744c5.876-2.267,12.479,0.66,14.744,6.537l43.491,112.114
		c2.266,5.877-0.66,12.478-6.537,14.744C218.109,511.743,216.72,511.99,215.356,511.99z"/>
</g>
<path style="fill:#CD5014;" d="M201.118,393.701H65.77c-7.367,0-13.704-5.212-15.125-12.441L17.559,212.945
	c-1.642-8.353,3.799-16.456,12.152-18.098c8.352-1.638,16.455,3.798,18.098,12.152l30.64,155.875h122.669
	c8.513,0,15.414,6.901,15.414,15.414C216.532,386.8,209.63,393.701,201.118,393.701z"/>
<path style="fill:#6C9BAA;" d="M257.848,323.152c-4.743-6.977-12.632-11.154-21.069-11.154h-58.613l1.636-103.86
	c0.149-9.481-3.495-18.628-10.122-25.409c-6.628-6.781-15.689-10.633-25.17-10.701l-15.195-0.109
	c-14.117-0.101-27.688,5.446-37.692,15.406c-10.004,9.96-15.611,23.507-15.572,37.624l0.283,103.068
	c0.026,9.458,3.819,18.514,10.541,25.168c6.721,6.654,15.817,9.871,25.274,9.802h65.217l0.001-0.037h21.937l-45.488,114.185
	c-5.177,13.082,1.231,27.884,14.315,33.062c13.084,5.177,27.886-1.236,33.062-14.315l59.277-149.034
	C263.572,339.003,262.591,330.131,257.848,323.152z"/>
<circle style="fill:#FFB69E;" cx="156.376" cy="120.457" r="46.857"/>
<path style="fill:#414B82;" d="M262.253,337.743c0.054-5.127-1.441-10.229-4.405-14.59c-4.743-6.977-12.632-11.154-21.069-11.154
	h-58.613L76.463,330.847c0.695,8.419,4.362,16.353,10.41,22.34c6.253,6.189,14.561,9.402,23.303,9.764h67.188l0,0h21.937l0,0l0,0
	l-45.488,114.185c-5.177,13.082,1.231,27.885,14.315,33.062c0.818,0.324,1.642,0.602,2.471,0.836
	c12.426,3.515,25.739-2.889,30.591-15.151l59.277-149.034C261.632,343.906,262.221,340.82,262.253,337.743z"/>
<path style="fill:#692823;" d="M319.752,302.949H200.734c-6.299,0-11.405-5.107-11.405-11.404c0-6.299,5.106-11.404,11.405-11.404
	h119.018c6.299,0,11.405,5.107,11.405,11.404C331.157,297.843,326.051,302.949,319.752,302.949z"/>
<path style="fill:#55879B;" d="M235.217,272.003c-2.896,0-5.72-1.471-7.328-4.13l-34.476-57.031
	c-2.444-4.043-1.148-9.301,2.895-11.745c4.043-2.444,9.301-1.148,11.745,2.895l34.475,57.031c2.445,4.043,1.149,9.301-2.895,11.745
	C238.251,271.604,236.724,272.003,235.217,272.003z"/>
<path style="fill:#FFB69E;" d="M137.461,291.722l-33.923-76.971c-4.603-10.445,0.133-22.643,10.577-27.246
	c10.443-4.603,22.643,0.132,27.246,10.577l26.412,59.929l66.722-21.46c10.868-3.495,22.508,2.48,26.002,13.346
	c3.495,10.865-2.481,22.507-13.346,26.002L162.7,303.06C152.69,306.281,141.758,301.469,137.461,291.722z"/>
<path style="fill:#A5C8CD;" d="M121.717,255.997l38.608-14.89l-18.963-43.026c-4.603-10.445-16.804-15.18-27.246-10.577
	c-10.445,4.603-15.18,16.802-10.577,27.246L121.717,255.997z"/>
<path style="fill:#53618C;" d="M470.113,511.99c-13.593,0-24.612-11.019-24.612-24.612V290.66c0-13.593,11.019-24.612,24.612-24.612
	c13.593,0,24.612,11.019,24.612,24.612v196.72C494.724,500.972,483.705,511.99,470.113,511.99z"/>
<path style="fill:#5F6E9B;" d="M410.701,511.99c-13.593,0-24.612-11.019-24.612-24.612V290.66c0-13.593,11.019-24.612,24.612-24.612
	c13.593,0,24.612,11.019,24.612,24.612v196.72C435.312,500.972,424.294,511.99,410.701,511.99z"/>
<path style="fill:#FF3C3C;" d="M386.09,290.66h108.634V135.794c0-17.62-14.283-31.902-31.902-31.902h-44.83
	c-17.62,0-31.902,14.283-31.902,31.902L386.09,290.66L386.09,290.66z"/>
<g>
	<circle style="fill:#BA6746;" cx="441.283" cy="45.232" r="45.232"/>
	<path style="fill:#BA6746;" d="M447.711,246.373l-85.935,26.355c-11.79,3.616-24.28-3.01-27.895-14.801
		c-3.616-11.789,3.01-24.281,14.8-27.895l69.969-21.46l-0.776-70.15c-0.137-12.332,9.752-22.439,22.082-22.576
		c12.331-0.136,22.438,9.75,22.575,22.081l0.961,86.848C463.601,234.624,457.227,243.455,447.711,246.373z"/>
</g>
<path style="fill:#DC1428;" d="M439.956,115.848c-12.331,0.137-22.22,10.243-22.082,22.576l0.527,47.658l44.666,0.352l-0.536-48.505
	C462.395,125.598,452.287,115.712,439.956,115.848z"/>
<g>
</g>
<g>
</g>
<g>
</g>
<g>
</g>
<g>
</g>
<g>
</g>
<g>
</g>
<g>
</g>
<g>
</g>
<g>
</g>
<g>
</g>
<g>
</g>
<g>
</g>
<g>
</g>
<g>
</g>
</svg>
