<?xml version="1.0" encoding="iso-8859-1"?>
<!-- Generator: Adobe Illustrator 19.0.0, SVG Export Plug-In . SVG Version: 6.00 Build 0)  -->
<svg version="1.1" id="Capa_1" xmlns="http://www.w3.org/2000/svg" xmlns:xlink="http://www.w3.org/1999/xlink" x="0px" y="0px"
	 viewBox="0 0 512 512" style="enable-background:new 0 0 512 512;" xml:space="preserve">
<g>
	<path style="fill:#A03C19;" d="M29.663,488.669c-6.092-2.35-9.127-9.193-6.776-15.286L67.4,357.154
		c2.35-6.093,9.195-9.125,15.286-6.777c6.092,2.35,9.127,9.194,6.776,15.286L44.949,481.892
		C42.592,488.004,35.739,491.011,29.663,488.669z"/>
	<path style="fill:#A03C19;" d="M194.324,481.892l-45.086-116.228c-2.35-6.093,0.685-12.936,6.777-15.286
		c6.091-2.351,12.936,0.684,15.286,6.777l45.087,116.228c2.35,6.093-0.685,12.936-6.777,15.286
		C203.556,491.004,196.688,488.024,194.324,481.892z"/>
</g>
<path style="fill:#CD5014;" d="M206.577,350.854c0,8.825-7.154,15.979-15.979,15.979H50.282c-7.637,0-14.207-5.404-15.68-12.897
	l-34.3-174.49c-1.702-8.66,3.939-17.06,12.598-18.763c8.659-1.698,17.059,3.938,18.763,12.598l31.764,161.593h127.17
	C199.422,334.875,206.577,342.029,206.577,350.854z"/>
<path style="fill:#6C9BAA;" d="M252.124,318.262c6.847-17.306-5.918-36.127-24.558-36.127h-60.764l1.695-107.671
	c0.322-20.435-16.08-37.289-36.587-37.435l-29.851-0.041c-22.671-0.031-41.074,18.375-41.035,41.049l0.207,120.704
	c0.027,9.805,3.96,19.194,10.927,26.092s16.397,10.234,26.201,10.161h67.61l0.001-0.038h22.742L141.556,453.33
	c-5.367,13.562,1.277,28.908,14.84,34.275c13.562,5.367,28.907-1.276,34.275-14.84L252.124,318.262z"/>
<circle style="fill:#FFB69E;" cx="144.211" cy="71.12" r="48.575"/>
<path style="fill:#414B82;" d="M227.567,282.135h-60.764L61.369,301.674c0.721,8.728,4.522,16.953,10.791,23.159
	c6.483,6.416,15.095,9.747,24.158,10.123h69.654l0,0h22.742l0,0l0,0L141.557,453.33c-5.765,14.568,2.343,30.888,17.401,35.141
	c12.882,3.643,26.683-2.996,31.714-15.707l61.453-154.502C258.971,300.958,246.209,282.135,227.567,282.135z"/>
<path style="fill:#692823;" d="M313.584,272.752H190.199c-6.53,0-11.823-5.293-11.823-11.823c0-6.53,5.293-11.823,11.823-11.823
	h123.385c6.53,0,11.823,5.293,11.823,11.823C325.407,267.459,320.114,272.752,313.584,272.752z"/>
<path style="fill:#C8E6EB;" d="M511.014,42.551c1.551-0.75,1.193-3.065-0.513-3.311L394.935,22.575
	c-1.067-0.154-2.15,0.144-2.988,0.824l-21.869,17.726c-1.253,1.016-0.576,3.05,1.036,3.112l89.88,3.437l-90.419,12.083
	c-1.02,0.136-1.706,1.121-1.476,2.128l9.09,39.678c0.554,2.421,3.219,3.699,5.455,2.618L511.014,42.551z"/>
<path style="fill:#FFB69E;" d="M96.703,168.014c-0.778-11.681,8.061-21.779,19.74-22.558l88.567-5.897l80.029-45.953
	c10.151-5.829,23.107-2.326,28.936,7.826c5.829,10.152,2.325,23.107-7.827,28.936l-84.282,48.396
	c-2.798,1.607-5.927,2.554-9.146,2.768l-93.461,6.223C107.598,188.532,97.482,179.712,96.703,168.014z"/>
<path style="fill:#A5C8CD;" d="M156.49,142.79l-40.046,2.666c-11.68,0.778-20.519,10.877-19.74,22.558
	c0.78,11.698,10.894,20.518,22.558,19.741l41.128-2.738L156.49,142.79z"/>
<g>
</g>
<g>
</g>
<g>
</g>
<g>
</g>
<g>
</g>
<g>
</g>
<g>
</g>
<g>
</g>
<g>
</g>
<g>
</g>
<g>
</g>
<g>
</g>
<g>
</g>
<g>
</g>
<g>
</g>
</svg>
