<?xml version="1.0" encoding="iso-8859-1"?>
<!-- Generator: Adobe Illustrator 19.0.0, SVG Export Plug-In . SVG Version: 6.00 Build 0)  -->
<svg version="1.1" id="Capa_1" xmlns="http://www.w3.org/2000/svg" xmlns:xlink="http://www.w3.org/1999/xlink" x="0px" y="0px"
	 viewBox="0 0 512 512" style="enable-background:new 0 0 512 512;" xml:space="preserve">
<path style="fill:#46738C;" d="M353.323,332.939H26.719c-9.995,0-18.098-8.103-18.098-18.098V107.929
	c0-9.995,8.103-18.098,18.098-18.098h326.605c9.995,0,18.098,8.103,18.098,18.098v206.912
	C371.421,324.836,363.319,332.939,353.323,332.939z"/>
<g>
	<path style="fill:#FFFFFF;" d="M98.545,215.429l11.422-15.161l-10.31-13.746c-0.404-0.506-1.01-1.516-1.01-2.526
		c0-3.538,6.569-7.883,10.613-7.883c0.606,0,2.426,0.101,3.335,1.617l8.086,13.241l8.187-13.139
		c0.809-1.314,2.426-1.718,3.538-1.718c3.639,0,10.411,4.346,10.411,7.883c0,0.809-0.304,1.516-1.011,2.526l-10.411,13.848
		l11.522,15.06c0.404,0.506,0.909,1.617,0.909,2.627c0,3.336-6.165,7.782-10.309,7.782c-1.213,0-2.728-0.404-3.538-1.617
		l-9.299-13.949l-9.197,13.949c-0.809,1.112-2.627,1.617-3.74,1.617c-3.234,0-10.107-4.144-10.107-7.782
		C97.635,217.147,98.039,216.135,98.545,215.429z"/>
	<path style="fill:#FFFFFF;" d="M162.226,216.742v-9.804h-9.804c-2.83,0-4.751-2.526-4.751-6.368c0-3.639,1.921-6.469,4.751-6.469
		h9.804v-9.703c0-2.426,2.83-4.851,6.469-4.851c3.842,0,6.368,2.426,6.368,4.851v9.703h9.703c2.426,0,4.851,2.83,4.851,6.469
		c0,3.841-2.427,6.368-4.851,6.368h-9.703v9.804c0,2.83-2.526,4.75-6.368,4.75C165.056,221.493,162.226,219.572,162.226,216.742z"/>
	<path style="fill:#FFFFFF;" d="M192.246,185.511c-0.303-0.607-0.505-1.213-0.505-2.022c0-4.043,6.569-7.48,10.613-7.48
		c1.92,0,3.639,0.708,4.346,2.527l11.421,27.391l8.39-27.391c0.708-1.82,2.427-2.527,4.044-2.527c3.639,0,10.815,3.437,10.815,7.782
		c0,0.506-0.102,1.213-0.405,1.718l-14.351,35.781c-5.055,12.735-7.177,25.471-27.695,25.471c-4.043,0-7.176-0.708-7.176-6.671
		c0-3.437,1.01-6.469,3.841-6.469c3.639,0,14.352-0.202,14.352-12.937L192.246,185.511z"/>
	<path style="fill:#FFFFFF;" d="M251.276,184.196h26.279c2.427,0,4.851,2.83,4.851,6.469c0,3.841-2.426,6.367-4.851,6.367h-26.279
		c-2.83,0-4.751-2.526-4.751-6.367C246.525,187.026,248.446,184.196,251.276,184.196z M251.276,204.714h26.279
		c2.427,0,4.851,2.83,4.851,6.469c0,3.841-2.426,6.368-4.851,6.368h-26.279c-2.83,0-4.751-2.526-4.751-6.368
		C246.525,207.544,248.446,204.714,251.276,204.714z"/>
</g>
<path id="SVGCleanerId_0" style="fill:#FFB69E;" d="M473.412,200.999L473.412,200.999v-33.794
	c-0.126-24.841-20.754-45.051-45.985-45.051c-19.221,0-69.927,0-88.434,0l-41.898-4.899l22.555-27.097
	c6.76-8.122,5.657-20.186-2.466-26.946c-8.125-6.76-20.187-5.657-26.947,2.466l-45.147,54.24
	c-9.708,11.665-2.579,29.483,12.484,31.244l67.927,7.942v146.411h101.347V160.421h0.579c4.022,0,7.7,3.326,7.718,6.881v33.698
	v106.869c0,10.567,8.567,19.134,19.135,19.134c10.567,0,19.134-8.567,19.134-19.134L473.412,200.999z"/>
<circle style="fill:#FFB69E;" cx="376.224" cy="65.211" r="39.655"/>
<path id="SVGCleanerId_1" style="fill:#414B82;" d="M380.926,298.126V489.04c0,12.68,10.28,22.96,22.96,22.96
	c12.681,0,22.96-10.28,22.96-22.96V298.126H380.926z"/>
<path id="SVGCleanerId_2" style="fill:#414B82;" d="M325.501,298.126V489.04c0,12.68,10.28,22.96,22.96,22.96
	c12.681,0,22.96-10.28,22.96-22.96V298.126H325.501z"/>
<path id="SVGCleanerId_3" style="fill:#78BEFF;" d="M473.412,200.999v-33.794c-0.126-24.841-20.754-45.051-45.985-45.051h-33.623
	c0,0.001,0,0.002,0,0.003c0.431,9.608-8.485,17.792-17.791,17.792c-9.974,0-17.36-8.152-17.791-17.792c0-0.001,0-0.002,0-0.003
	h-19.227l-41.898-4.899l-8.766,37.361l37.173,4.458v146.442H426.85V160.421h0.579c4.022,0,7.7,3.326,7.718,6.881v33.698H473.412z"/>
<g>
	<path style="fill:#E64B55;" d="M493.682,97.058h-55.85c-5.356,0-9.697-4.341-9.697-9.697c0-5.355,4.341-9.697,9.697-9.697h55.85
		c5.356,0,9.697,4.341,9.697,9.697C503.379,92.716,499.038,97.058,493.682,97.058z"/>
	<path style="fill:#E64B55;" d="M430.976,56.045c-3.788-3.787-3.788-9.926,0-13.714L470.468,2.84c3.786-3.787,9.927-3.787,13.713,0
		c3.788,3.787,3.788,9.926,0,13.714l-39.491,39.491C440.902,59.832,434.761,59.832,430.976,56.045z"/>
</g>
<g>
	<path id="SVGCleanerId_0_1_" style="fill:#FFB69E;" d="M473.412,200.999L473.412,200.999v-33.794
		c-0.126-24.841-20.754-45.051-45.985-45.051c-19.221,0-69.927,0-88.434,0l-41.898-4.899l22.555-27.097
		c6.76-8.122,5.657-20.186-2.466-26.946c-8.125-6.76-20.187-5.657-26.947,2.466l-45.147,54.24
		c-9.708,11.665-2.579,29.483,12.484,31.244l67.927,7.942v146.411h101.347V160.421h0.579c4.022,0,7.7,3.326,7.718,6.881v33.698
		v106.869c0,10.567,8.567,19.134,19.135,19.134c10.567,0,19.134-8.567,19.134-19.134L473.412,200.999z"/>
</g>
<circle style="fill:#FFB69E;" cx="376.224" cy="65.211" r="39.655"/>
<g>
	<path id="SVGCleanerId_1_1_" style="fill:#414B82;" d="M380.926,298.126V489.04c0,12.68,10.28,22.96,22.96,22.96
		c12.681,0,22.96-10.28,22.96-22.96V298.126H380.926z"/>
</g>
<g>
	<path id="SVGCleanerId_2_1_" style="fill:#414B82;" d="M325.501,298.126V489.04c0,12.68,10.28,22.96,22.96,22.96
		c12.681,0,22.96-10.28,22.96-22.96V298.126H325.501z"/>
</g>
<g>
	<path id="SVGCleanerId_3_1_" style="fill:#78BEFF;" d="M473.412,200.999v-33.794c-0.126-24.841-20.754-45.051-45.985-45.051
		h-33.623c0,0.001,0,0.002,0,0.003c0.431,9.608-8.485,17.792-17.791,17.792c-9.974,0-17.36-8.152-17.791-17.792
		c0-0.001,0-0.002,0-0.003h-19.227l-41.898-4.899l-8.766,37.361l37.173,4.458v146.442H426.85V160.421h0.579
		c4.022,0,7.7,3.326,7.718,6.881v33.698H473.412z"/>
</g>
<path style="fill:#C8E6EB;" d="M493.682,97.058h-55.85c-5.356,0-9.697-4.341-9.697-9.697c0-5.355,4.341-9.697,9.697-9.697h55.85
	c5.356,0,9.697,4.341,9.697,9.697C503.379,92.716,499.038,97.058,493.682,97.058z"/>
<path style="fill:#B4D7DC;" d="M430.976,56.045c-3.788-3.787-3.788-9.926,0-13.714L470.468,2.84c3.786-3.787,9.927-3.787,13.713,0
	c3.788,3.787,3.788,9.926,0,13.714l-39.491,39.491C440.902,59.832,434.761,59.832,430.976,56.045z"/>
<g>
</g>
<g>
</g>
<g>
</g>
<g>
</g>
<g>
</g>
<g>
</g>
<g>
</g>
<g>
</g>
<g>
</g>
<g>
</g>
<g>
</g>
<g>
</g>
<g>
</g>
<g>
</g>
<g>
</g>
</svg>
