<?xml version="1.0" encoding="iso-8859-1"?>
<!-- Generator: Adobe Illustrator 19.0.0, SVG Export Plug-In . SVG Version: 6.00 Build 0)  -->
<svg version="1.1" id="Capa_1" xmlns="http://www.w3.org/2000/svg" xmlns:xlink="http://www.w3.org/1999/xlink" x="0px" y="0px"
	 viewBox="0 0 512 512" style="enable-background:new 0 0 512 512;" xml:space="preserve">
<g>
	<path style="fill:#414B82;" d="M420.576,512c-13.476,0-24.401-10.925-24.401-24.401V292.562c0-13.476,10.925-24.401,24.401-24.401
		s24.401,10.925,24.401,24.401v195.037C444.977,501.075,434.052,512,420.576,512z"/>
	<path style="fill:#414B82;" d="M361.672,512c-13.476,0-24.401-10.925-24.401-24.401V292.562c0-13.476,10.925-24.401,24.401-24.401
		s24.401,10.925,24.401,24.401v195.037C386.073,501.075,375.148,512,361.672,512z"/>
</g>
<path style="fill:#252D5C;" d="M391.97,97.259h-54.698l0,0c-25.805,0-44.522,20.025-48.102,46.083l-8.907,54.257L236.331,252.3
	c-7.036,8.761-5.637,21.567,3.124,28.602c8.751,7.028,21.557,5.648,28.603-3.124l47.278-58.87c2.194-2.732,3.645-5.985,4.213-9.444
	c4.138-25.235,8.649-52.63,10.515-64.128c0.753-4.641,3.117-7.387,7.208-7.387l0,0v154.612h107.705V97.259H391.97z"/>
<path style="fill:#FFFFFF;" d="M243.233,244.295c-0.155,0-0.302-0.02-0.456-0.023l-6.447,8.027
	c-7.036,8.761-5.637,21.567,3.124,28.602c8.751,7.028,21.557,5.648,28.603-3.124l6.237-7.766L243.233,244.295z"/>
<path style="fill:#BA6746;" d="M236.33,252.299c-7.036,8.761-5.637,21.567,3.124,28.602c8.751,7.028,21.557,5.648,28.603-3.124
	L236.33,252.299z"/>
<path style="fill:#1B224A;" d="M493.102,145.163c-0.134-26.407-21.721-47.891-48.125-47.904l0,0h-0.022h-45.189h-8.641v162.709
	l-0.287,0.227c-8.824,6.957-10.339,19.749-3.382,28.573c1.091,1.384,2.33,2.582,3.669,3.601v0.195h0.26
	c6.951,5.114,16.675,5.429,24.072,0h29.521v-23.234l40.756-32.129c4.922-3.88,7.781-9.812,7.75-16.08L493.102,145.163z
	 M444.977,217.514V137.95c4.081,0.013,7.414,3.335,7.434,7.418l0.332,66.024L444.977,217.514z"/>
<circle style="fill:#BA6746;" cx="391.116" cy="42.143" r="42.143"/>
<polygon style="fill:#FFFFFF;" points="360.092,97.259 391.121,178.681 422.151,97.259 "/>
<path style="fill:#FF3C3C;" d="M405.487,130.781c0.388-1.939,0.078-3.95-0.874-5.682l-6.926-12.598l5.974-10.866
	c0.503-0.915,0.486-2.028-0.046-2.927s-1.498-1.451-2.543-1.451h-19.914c-1.045,0-2.011,0.552-2.543,1.451
	c-0.532,0.899-0.549,2.012-0.046,2.927l5.994,10.902l-6.907,12.563c-0.951,1.731-1.261,3.742-0.874,5.679l4.316,21.598
	l10.024,26.303l10.06-26.396L405.487,130.781z"/>
<path style="fill:#C8E6EB;" d="M435.705,261.109c1.909,6.746-2.012,13.762-8.758,15.671l-101.743,28.796
	c-6.746,1.909-13.762-2.012-15.671-8.758l-17.442-61.629c-1.909-6.746,2.012-13.762,8.758-15.671l101.743-28.795
	c6.746-1.909,13.762,2.012,15.671,8.758L435.705,261.109z"/>
<circle style="fill:#A5C8CD;" cx="332.397" cy="257.062" r="11.833"/>
<path style="fill:#1B224A;" d="M444.977,217.516l-54.14,42.679c-8.824,6.957-10.339,19.749-3.382,28.573
	c4.016,5.093,9.973,7.751,15.992,7.751c4.41,0,8.85-1.427,12.582-4.369l28.949-22.82v-51.814H444.977z"/>
<path style="fill:#FFFFFF;" d="M390.837,260.193c-8.824,6.957-10.339,19.749-3.382,28.573c6.97,8.84,19.762,10.328,28.574,3.382
	l7.643-6.024l-25.392-31.797L390.837,260.193z"/>
<path style="fill:#BA6746;" d="M390.837,260.193c-8.824,6.957-10.339,19.749-3.382,28.573c6.97,8.84,19.762,10.328,28.574,3.382
	L390.837,260.193z"/>
<g>
	<path style="fill:#FFB69E;" d="M252.746,267.736l-42.098-38.519v-59.433c-0.123-24.674-20.451-44.748-45.313-44.748
		c-11.207,0-89.941,0-101.172,0c-25.045,0-45.52,20.06-45.645,44.718v33.545l-0.002,106.08c0,10.489,8.504,18.991,18.992,18.991
		s18.992-8.503,18.992-18.991V203.3v-33.448c0.018-3.53,3.669-6.83,7.661-6.83h0.574v144.021h100.597V163.045l0,0
		c3.941,0,7.287,3.174,7.305,6.835v67.709c0,5.333,2.241,10.42,6.175,14.021l48.273,44.169c7.725,7.067,19.747,6.57,26.849-1.192
		C261.023,286.842,260.489,274.821,252.746,267.736z"/>
	<circle style="fill:#FFB69E;" cx="114.98" cy="68.512" r="39.363"/>
</g>
<g>
	<path style="fill:#414B82;" d="M110.319,299.708v189.501c0,12.587-10.204,22.79-22.79,22.79s-22.79-10.204-22.79-22.79V299.708
		H110.319z"/>
	<path style="fill:#414B82;" d="M165.334,299.708v189.501c0,12.587-10.204,22.79-22.79,22.79c-12.588,0-22.79-10.204-22.79-22.79
		V299.708H165.334z"/>
</g>
<path style="fill:#78BEFF;" d="M165.335,125.038c-11.993,0-90.239,0-101.172,0c-25.045,0-45.52,20.06-45.645,44.718V203.3h37.985
	v-33.448c0.018-3.53,3.669-6.83,7.661-6.83h0.574v144.021h100.597V163.045l0,0c3.941,0,7.287,3.174,7.305,6.835v32.608h38.008
	v-32.702C210.525,145.111,190.197,125.038,165.335,125.038z"/>
<g>
</g>
<g>
</g>
<g>
</g>
<g>
</g>
<g>
</g>
<g>
</g>
<g>
</g>
<g>
</g>
<g>
</g>
<g>
</g>
<g>
</g>
<g>
</g>
<g>
</g>
<g>
</g>
<g>
</g>
</svg>
