<?xml version="1.0" encoding="iso-8859-1"?>
<!-- Generator: Adobe Illustrator 19.0.0, SVG Export Plug-In . SVG Version: 6.00 Build 0)  -->
<svg version="1.1" id="Capa_1" xmlns="http://www.w3.org/2000/svg" xmlns:xlink="http://www.w3.org/1999/xlink" x="0px" y="0px"
	 viewBox="0 0 512.001 512.001" style="enable-background:new 0 0 512.001 512.001;" xml:space="preserve">
<g>
	<path style="fill:#A03C19;" d="M70.016,511.854c-1.397,0-2.817-0.253-4.198-0.785c-6.016-2.32-9.012-9.078-6.692-15.095
		l43.956-114.777c2.32-6.017,9.079-9.01,15.095-6.692c6.016,2.32,9.012,9.078,6.692,15.095L80.912,504.377
		C79.124,509.011,74.703,511.854,70.016,511.854z"/>
	<path style="fill:#A03C19;" d="M239.316,511.854c-4.688,0-9.109-2.842-10.897-7.478L183.897,389.6
		c-2.32-6.017,0.677-12.775,6.692-15.095c6.015-2.321,12.775,0.676,15.095,6.692l44.523,114.776
		c2.32,6.017-0.677,12.775-6.692,15.095C242.135,511.601,240.713,511.854,239.316,511.854z"/>
</g>
<path style="fill:#CD5014;" d="M224.74,397.549H86.179c-7.542,0-14.03-5.336-15.484-12.736L36.823,212.502
	c-1.681-8.551,3.889-16.847,12.44-18.528c8.551-1.677,16.846,3.889,18.528,12.44L99.159,365.99H224.74
	c8.715,0,15.78,7.065,15.78,15.78S233.455,397.549,224.74,397.549z"/>
<path style="fill:#414B82;" d="M287.843,326.228c-4.739-6.971-12.62-11.144-21.049-11.144h-65.714l30.104-105.074
	c4.811-16.79-4.901-34.301-21.692-39.111c-21.812-6.249-45.243-3.107-64.638,8.667c-19.396,11.775-32.993,31.112-37.514,53.347
	L93.918,298.93c-3.344,16.448,0.877,33.528,11.498,46.524c10.62,12.997,26.517,20.536,43.302,20.536h37.776v-0.002h42.855
	L185.35,477.176c-5.173,13.07,1.231,27.859,14.301,33.031c3.074,1.217,6.242,1.793,9.358,1.793c10.136,0,19.717-6.097,23.674-16.094
	l57.776-146.004C293.561,342.064,292.581,333.2,287.843,326.228z"/>
<circle style="fill:#B55935;" cx="291.959" cy="182.692" r="46.815"/>
<path style="fill:#FF3C3C;" d="M201.078,315.085l30.104-105.074c4.811-16.79-4.901-34.301-21.692-39.111
	c-21.812-6.249-45.243-3.107-64.638,8.667c-19.396,11.775-32.993,31.112-37.514,53.347l-13.421,66.018
	c-2.201,10.827-1.125,21.928,2.899,31.958L201.078,315.085z"/>
<path style="fill:#692823;" d="M361.583,306.06H239.436c-6.465,0-11.704-5.241-11.704-11.704c0-6.464,5.241-11.704,11.704-11.704
	h122.148c6.465,0,11.704,5.241,11.704,11.704C373.288,300.82,368.048,306.06,361.583,306.06z"/>
<path style="fill:#BA6746;" d="M242.272,276.748l-61.806-59.286c-8.454-8.109-8.733-21.536-0.624-29.989
	c8.109-8.454,21.536-8.733,29.989-0.624l51.469,49.37l74.217-33.449c10.68-4.813,23.239-0.057,28.051,10.622
	c4.814,10.679,0.058,23.238-10.622,28.052l-87.278,39.336C257.813,284.318,248.546,282.766,242.272,276.748z"/>
<path style="fill:#DC1428;" d="M208.819,244.66c10.001-10.001,20.001-20.002,30.003-30.003l-28.991-27.81
	c-8.454-8.108-21.88-7.83-29.989,0.624s-7.83,21.88,0.624,29.99L208.819,244.66z"/>
<path style="fill:#A5C8CD;" d="M371.877,119.59h30.953c3.414,0,5.348,4.096,5.348,7.738s-1.934,7.738-5.348,7.738h-48.477
	c-3.641,0-5.121-1.934-5.121-4.666c0-1.821,0.683-4.096,1.934-6.259l32.091-56.785h-26.403c-3.414,0-5.348-3.641-5.348-7.738
	c0-3.755,1.594-7.738,5.348-7.738h43.926c3.414,0,5.121,1.934,5.121,4.666c0,1.821-0.683,3.983-1.934,6.259L371.877,119.59z"/>
<path style="fill:#C8E6EB;" d="M454.05,39.965h18.27c2.015,0,3.157,2.418,3.157,4.567s-1.143,4.567-3.157,4.567h-28.614
	c-2.15,0-3.023-1.142-3.023-2.754c0-1.074,0.403-2.418,1.143-3.694l18.941-33.517h-15.583c-2.016,0-3.157-2.15-3.157-4.567
	c0-2.217,0.94-4.567,3.157-4.567h25.927c2.016,0,3.023,1.142,3.023,2.754c0,1.074-0.403,2.351-1.142,3.694L454.05,39.965z"/>
<g>
</g>
<g>
</g>
<g>
</g>
<g>
</g>
<g>
</g>
<g>
</g>
<g>
</g>
<g>
</g>
<g>
</g>
<g>
</g>
<g>
</g>
<g>
</g>
<g>
</g>
<g>
</g>
<g>
</g>
</svg>
